<svg width="120" height="104" viewBox="0 0 120 104" fill="none" xmlns="http://www.w3.org/2000/svg">
<path d="M103.334 43.8751C101.897 43.8751 100.519 44.4458 99.5035 45.4616C98.4877 46.4774 97.917 47.8552 97.917 49.2918V87.2084C97.917 88.645 97.3463 90.0228 96.3305 91.0386C95.3147 92.0544 93.9369 92.6251 92.5003 92.6251H16.667C15.2304 92.6251 13.8527 92.0544 12.8368 91.0386C11.821 90.0228 11.2503 88.645 11.2503 87.2084V43.8751C11.2503 42.4385 11.821 41.0607 12.8368 40.0449C13.8527 39.0291 15.2304 38.4584 16.667 38.4584H27.5003C28.6815 38.5201 29.8504 38.1934 30.8285 37.5283C31.8066 36.8632 32.5401 35.8962 32.917 34.7751L35.842 25.8917C36.2054 24.8159 36.8977 23.8814 37.8211 23.2205C38.7445 22.5595 39.8522 22.2055 40.9878 22.2084H70.8336C72.2702 22.2084 73.648 21.6377 74.6638 20.6219C75.6796 19.6061 76.2503 18.2283 76.2503 16.7917C76.2503 15.3552 75.6796 13.9774 74.6638 12.9616C73.648 11.9458 72.2702 11.3751 70.8336 11.3751H40.717C37.3129 11.3815 33.9967 12.4567 31.2366 14.4491C28.4764 16.4414 26.4116 19.2503 25.3337 22.4792L23.6003 27.8959H16.667C12.3572 27.8959 8.22397 29.608 5.17651 32.6554C2.12904 35.7029 0.416992 39.8362 0.416992 44.1459V87.4792C0.416992 91.789 2.12904 95.9223 5.17651 98.9697C8.22397 102.017 12.3572 103.729 16.667 103.729H92.5003C96.8101 103.729 100.943 102.017 103.991 98.9697C107.038 95.9223 108.75 91.789 108.75 87.4792V49.5626C108.787 48.8288 108.674 48.0952 108.418 47.4064C108.163 46.7177 107.77 46.0881 107.263 45.5561C106.756 45.0241 106.147 44.6007 105.471 44.3117C104.796 44.0227 104.068 43.8742 103.334 43.8751ZM54.5837 38.4584C50.2984 38.4584 46.1094 39.7291 42.5463 42.1099C38.9832 44.4907 36.2062 47.8745 34.5663 51.8336C32.9264 55.7927 32.4973 60.1491 33.3333 64.352C34.1693 68.555 36.2329 72.4156 39.263 75.4457C42.2931 78.4759 46.1538 80.5394 50.3567 81.3754C54.5596 82.2114 58.9161 81.7824 62.8751 80.1425C66.8342 78.5026 70.2181 75.7255 72.5988 72.1624C74.9796 68.5994 76.2503 64.4103 76.2503 60.1251C76.2503 54.3787 73.9676 48.8677 69.9043 44.8044C65.841 40.7411 60.33 38.4584 54.5837 38.4584ZM54.5837 70.9584C52.441 70.9584 50.3465 70.3231 48.565 69.1327C46.7834 67.9423 45.3949 66.2504 44.575 64.2708C43.755 62.2913 43.5405 60.1131 43.9585 58.0116C44.3765 55.9101 45.4083 53.9798 46.9233 52.4648C48.4384 50.9497 50.3687 49.9179 52.4702 49.4999C54.5716 49.0819 56.7499 49.2964 58.7294 50.1164C60.7089 50.9363 62.4009 52.3249 63.5912 54.1064C64.7816 55.8879 65.417 57.9825 65.417 60.1251C65.417 62.9983 64.2756 65.7538 62.244 67.7854C60.2123 69.817 57.4568 70.9584 54.5837 70.9584ZM114.167 11.3751H108.75V5.95842C108.75 4.52183 108.18 3.14407 107.164 2.12825C106.148 1.11243 104.77 0.541748 103.334 0.541748C101.897 0.541748 100.519 1.11243 99.5035 2.12825C98.4877 3.14407 97.917 4.52183 97.917 5.95842V11.3751H92.5003C91.0637 11.3751 89.686 11.9458 88.6702 12.9616C87.6543 13.9774 87.0836 15.3552 87.0836 16.7917C87.0836 18.2283 87.6543 19.6061 88.6702 20.6219C89.686 21.6377 91.0637 22.2084 92.5003 22.2084H97.917V27.6251C97.917 29.0617 98.4877 30.4394 99.5035 31.4552C100.519 32.4711 101.897 33.0417 103.334 33.0417C104.77 33.0417 106.148 32.4711 107.164 31.4552C108.18 30.4394 108.75 29.0617 108.75 27.6251V22.2084H114.167C115.604 22.2084 116.981 21.6377 117.997 20.6219C119.013 19.6061 119.584 18.2283 119.584 16.7917C119.584 15.3552 119.013 13.9774 117.997 12.9616C116.981 11.9458 115.604 11.3751 114.167 11.3751Z" fill="url(#paint0_linear_1049_2200)"/>
<defs>
<linearGradient id="paint0_linear_1049_2200" x1="60.0003" y1="0.541748" x2="60.0003" y2="103.729" gradientUnits="userSpaceOnUse">
<stop stop-color="#71EA87"/>
<stop offset="1" stop-color="#24AA2D"/>
</linearGradient>
</defs>
</svg>
