<svg width="15" height="23" viewBox="0 0 15 23" fill="none" xmlns="http://www.w3.org/2000/svg">
<g clip-path="url(#clip0_905_87)">
<path d="M7.38416 1.36963C8.82212 1.36963 9.27396 2.40102 9.65305 3.43079C9.81229 3.86808 13.5491 14.1012 13.6614 14.4083C13.6913 14.494 13.6711 14.6346 13.5394 14.6856C13.4068 14.7357 11.4653 15.4906 11.3578 15.531C11.2503 15.5723 11.1298 15.5125 11.091 15.4049C11.0506 15.2991 10.2447 13.0682 10.1542 12.8192H4.61573C4.52843 13.0682 3.71286 15.3039 3.67649 15.4049C3.63931 15.5076 3.52372 15.5771 3.40894 15.531C3.29416 15.4858 1.34535 14.7308 1.22895 14.6856C1.11741 14.6419 1.06649 14.515 1.10528 14.4083C1.2427 14.0252 4.92288 3.95619 5.11041 3.43079C5.47576 2.41638 5.94296 1.36963 7.38416 1.36963ZM0.809447 19.68C0.693052 19.68 0.600098 19.777 0.600098 19.8951V22.2868C0.600098 22.4048 0.693052 22.5002 0.809447 22.5002H13.9532C14.072 22.5002 14.165 22.4048 14.165 22.2868V19.8951C14.165 19.777 14.072 19.68 13.9532 19.68H0.809447ZM7.37122 4.71114L5.4992 10.3329H9.27396L7.39547 4.71114H7.37122Z" fill="#EE2A23"/>
</g>
<defs>
<clipPath id="clip0_905_87">
<rect width="14" height="22" fill="white" transform="translate(0.600098 0.5)"/>
</clipPath>
</defs>
</svg>
