<svg width="32" height="20" viewBox="0 0 32 20" fill="none" xmlns="http://www.w3.org/2000/svg">
<g clip-path="url(#clip0_905_111)">
<path d="M27.9134 0H2.89578C2.79159 0 2.68721 0 2.5832 0.000622847C2.49528 0.00126457 2.40756 0.0022649 2.31985 0.00471853C2.12854 0.0100222 1.9356 0.021592 1.74669 0.0563959C1.55476 0.0918038 1.37616 0.149559 1.20193 0.240494C1.03064 0.329788 0.873825 0.446581 0.737926 0.585948C0.601968 0.725314 0.488033 0.885801 0.400943 1.06158C0.312214 1.24018 0.255836 1.42332 0.221534 1.62021C0.187399 1.81392 0.176037 2.01166 0.170882 2.20756C0.168525 2.29747 0.167514 2.38739 0.166941 2.47729C0.166334 2.58413 0.166536 2.6909 0.166536 2.79794V17.2023C0.166536 17.3093 0.166334 17.4159 0.166941 17.5229C0.167514 17.6128 0.168525 17.7028 0.170882 17.7927C0.176037 17.9884 0.187399 18.1861 0.221534 18.3798C0.255836 18.5768 0.312214 18.7598 0.400943 18.9384C0.488033 19.1142 0.601968 19.2749 0.737926 19.4141C0.873825 19.5537 1.03064 19.6704 1.20193 19.7595C1.37616 19.8507 1.55476 19.9085 1.74669 19.9438C1.9356 19.9784 2.12854 19.9902 2.31985 19.9955C2.40756 19.9975 2.49528 19.9988 2.5832 19.9992C2.68721 20 2.79159 20 2.89578 20H27.9134C28.0175 20 28.1218 20 28.2258 19.9992C28.3135 19.9988 28.4013 19.9975 28.4894 19.9955C28.6803 19.9902 28.8732 19.9784 29.0625 19.9438C29.2542 19.9085 29.4329 19.8507 29.6071 19.7595C29.7786 19.6704 29.9349 19.5537 30.0711 19.4141C30.2069 19.2749 30.3208 19.1142 30.4081 18.9384C30.497 18.7598 30.5534 18.5768 30.5875 18.3798C30.6216 18.1861 30.6327 17.9884 30.6379 17.7927C30.6403 17.7028 30.6415 17.6128 30.6419 17.5229C30.6427 17.4159 30.6427 17.3093 30.6427 17.2023V2.79794C30.6427 2.6909 30.6427 2.58413 30.6419 2.47729C30.6415 2.38739 30.6403 2.29747 30.6379 2.20756C30.6327 2.01166 30.6216 1.81392 30.5875 1.62021C30.5534 1.42332 30.497 1.24018 30.4081 1.06158C30.3208 0.885801 30.2069 0.725314 30.0711 0.585948C29.9349 0.446581 29.7786 0.329788 29.6071 0.240494C29.4329 0.149559 29.2542 0.0918038 29.0625 0.0563959C28.8732 0.021592 28.6803 0.0100222 28.4894 0.00471853C28.4013 0.0022649 28.3135 0.00126457 28.2258 0.000622847C28.1218 0 28.0175 0 27.9134 0Z" fill="#4B4B4B"/>
<path d="M27.9135 0.666504L28.2213 0.667108C28.3046 0.667712 28.388 0.668637 28.4718 0.670977C28.6177 0.675016 28.7882 0.683113 28.9473 0.71233C29.0855 0.737848 29.2014 0.776653 29.3126 0.83471C29.4225 0.891918 29.5231 0.966886 29.611 1.05682C29.6992 1.14736 29.7724 1.25068 29.8289 1.36451C29.8852 1.47766 29.9229 1.59592 29.9476 1.73865C29.976 1.89987 29.9839 2.07521 29.9879 2.22562C29.9901 2.31052 29.9912 2.39541 29.9917 2.48233C29.9924 2.58744 29.9924 2.69249 29.9924 2.79781V17.2021C29.9924 17.3075 29.9924 17.4123 29.9916 17.5197C29.9912 17.6046 29.9901 17.6894 29.9879 17.7745C29.9839 17.9247 29.976 18.0999 29.9473 18.2631C29.9229 18.4038 29.8853 18.5221 29.8286 18.6358C29.7723 18.7494 29.6991 18.8526 29.6113 18.9425C29.523 19.0331 29.4227 19.1079 29.3115 19.1656C29.2011 19.2234 29.0854 19.2622 28.9485 19.2874C28.7863 19.317 28.6086 19.3252 28.4747 19.3289C28.3905 19.3309 28.3067 19.332 28.2208 19.3324C28.1185 19.3333 28.0158 19.3332 27.9135 19.3332H2.89584C2.89448 19.3332 2.89315 19.3332 2.89177 19.3332C2.79061 19.3332 2.68925 19.3332 2.58625 19.3324C2.50228 19.332 2.41848 19.3309 2.33747 19.329C2.20055 19.3252 2.02271 19.3171 1.86181 19.2876C1.72377 19.2622 1.60805 19.2234 1.49617 19.1649C1.38609 19.1076 1.28587 19.033 1.19747 18.9422C1.10976 18.8524 1.03687 18.7495 0.980506 18.6358C0.924091 18.5222 0.886346 18.4036 0.861528 18.2611C0.83284 18.0983 0.824959 17.9238 0.821021 17.7746C0.818773 17.6892 0.817834 17.6038 0.8173 17.5189L0.816895 17.2683L0.816913 17.2021V2.79781L0.816895 2.73164L0.817281 2.48154C0.817834 2.39613 0.818773 2.31074 0.821021 2.22541C0.824959 2.0761 0.83284 1.90148 0.861765 1.73731C0.886364 1.59615 0.924091 1.47751 0.980801 1.36334C1.03672 1.25049 1.10974 1.14747 1.19792 1.0571C1.28574 0.967037 1.38629 0.892163 1.49708 0.834408C1.60775 0.776634 1.7237 0.737848 1.86173 0.712387C2.02078 0.683094 2.19148 0.675016 2.33767 0.670958C2.421 0.668637 2.50434 0.667712 2.58705 0.667127L2.89584 0.666504H27.9135Z" fill="white"/>
<path d="M8.48663 6.72676C8.74757 6.39219 8.92465 5.94295 8.87795 5.48389C8.49596 5.50336 8.02982 5.74222 7.75994 6.07706C7.51762 6.36379 7.30315 6.83184 7.35906 7.27166C7.78787 7.30979 8.21627 7.05195 8.48663 6.72676Z" fill="#4B4B4B"/>
<path d="M8.87274 7.35753C8.25002 7.3195 7.72055 7.71982 7.42317 7.71982C7.12562 7.71982 6.67024 7.37669 6.17769 7.38594C5.53662 7.39559 4.94179 7.76715 4.61647 8.3581C3.94735 9.5403 4.43988 11.2939 5.09057 12.2568C5.40656 12.7331 5.78737 13.2576 6.28917 13.2388C6.76328 13.2197 6.9491 12.9241 7.52539 12.9241C8.10126 12.9241 8.26866 13.2388 8.77053 13.2292C9.29098 13.2197 9.61635 12.7526 9.93233 12.2758C10.2948 11.7328 10.4432 11.2085 10.4526 11.1797C10.4432 11.1702 9.44899 10.7792 9.43976 9.60682C9.43039 8.62518 10.2204 8.15825 10.2575 8.1293C9.81143 7.45295 9.11439 7.37669 8.87274 7.35753Z" fill="#4B4B4B"/>
<path d="M14.2954 6.02881C15.6489 6.02881 16.5913 6.98518 16.5913 8.37758C16.5913 9.77495 15.6295 10.7363 14.2614 10.7363H12.7629V13.1792H11.6802V6.02881H14.2954ZM12.7629 9.80468H14.0052C14.9479 9.80468 15.4844 9.28444 15.4844 8.38255C15.4844 7.48076 14.9479 6.96539 14.0101 6.96539H12.7629V9.80468Z" fill="#4B4B4B"/>
<path d="M16.8735 11.6975C16.8735 10.7857 17.5551 10.2258 18.7637 10.1564L20.1558 10.0722V9.67087C20.1558 9.09109 19.7739 8.74423 19.1359 8.74423C18.5315 8.74423 18.1545 9.04149 18.0627 9.50734H17.0766C17.1346 8.56579 17.9176 7.87207 19.1745 7.87207C20.4072 7.87207 21.195 8.54103 21.195 9.58657V13.1791H20.1944V12.3219H20.1703C19.8755 12.9016 19.2325 13.2683 18.5655 13.2683C17.5697 13.2683 16.8735 12.634 16.8735 11.6975ZM20.1558 11.2268V10.8155L18.9037 10.8948C18.2802 10.9394 17.9273 11.2218 17.9273 11.6678C17.9273 12.1236 18.2947 12.421 18.8555 12.421C19.5853 12.421 20.1558 11.9056 20.1558 11.2268Z" fill="#4B4B4B"/>
<path d="M22.14 15.0969V14.2297C22.2172 14.2495 22.3911 14.2495 22.4782 14.2495C22.9616 14.2495 23.2227 14.0414 23.3821 13.5063C23.3821 13.4963 23.474 13.1892 23.474 13.1842L21.6372 7.96631H22.7682L24.0542 12.208H24.0734L25.3594 7.96631H26.4615L24.5567 13.4517C24.1219 14.7154 23.6191 15.1217 22.5653 15.1217C22.4782 15.1217 22.2172 15.1117 22.14 15.0969Z" fill="#4B4B4B"/>
</g>
<defs>
<clipPath id="clip0_905_111">
<rect width="31" height="20" fill="white" transform="translate(0.166504)"/>
</clipPath>
</defs>
</svg>
