<svg width="36" height="26" viewBox="0 0 36 26" fill="none" xmlns="http://www.w3.org/2000/svg">
<path d="M24.5207 1.04289C24.1302 0.652369 23.497 0.652369 23.1065 1.04289C22.716 1.43342 22.716 2.06658 23.1065 2.45711L24.5207 1.04289ZM35.0636 13L35.7707 13.7071C36.1613 13.3166 36.1613 12.6834 35.7707 12.2929L35.0636 13ZM23.1065 23.5429C22.716 23.9334 22.716 24.5666 23.1065 24.9571C23.497 25.3476 24.1302 25.3476 24.5207 24.9571L23.1065 23.5429ZM1 12C0.447715 12 0 12.4477 0 13C0 13.5523 0.447715 14 1 14V12ZM23.1065 2.45711L34.3565 13.7071L35.7707 12.2929L24.5207 1.04289L23.1065 2.45711ZM34.3565 12.2929L23.1065 23.5429L24.5207 24.9571L35.7707 13.7071L34.3565 12.2929ZM35.0636 12H1V14H35.0636V12Z" fill="url(#paint0_linear_453_810)"/>
<defs>
<linearGradient id="paint0_linear_453_810" x1="18.0318" y1="1.75" x2="18.0318" y2="24.25" gradientUnits="userSpaceOnUse">
<stop stop-color="#71EA87"/>
<stop offset="1" stop-color="#24AA2D"/>
</linearGradient>
</defs>
</svg>
