<svg width="260" height="260" viewBox="0 0 260 260" fill="none" xmlns="http://www.w3.org/2000/svg">
<path d="M130 151.667C127.322 151.667 124.704 152.461 122.477 153.949C120.25 155.437 118.514 157.552 117.49 160.026C116.465 162.501 116.196 165.223 116.719 167.85C117.241 170.477 118.531 172.89 120.425 174.784C122.319 176.678 124.732 177.967 127.359 178.49C129.985 179.012 132.708 178.744 135.183 177.719C137.657 176.694 139.772 174.959 141.26 172.732C142.748 170.505 143.542 167.887 143.542 165.208C143.542 161.617 142.115 158.172 139.576 155.633C137.036 153.093 133.592 151.667 130 151.667ZM130 135.417C132.874 135.417 135.629 134.275 137.661 132.244C139.692 130.212 140.834 127.456 140.834 124.583V92.0833C140.834 89.2101 139.692 86.4546 137.661 84.423C135.629 82.3913 132.874 81.25 130 81.25C127.127 81.25 124.372 82.3913 122.34 84.423C120.308 86.4546 119.167 89.2101 119.167 92.0833V124.583C119.167 127.456 120.308 130.212 122.34 132.244C124.372 134.275 127.127 135.417 130 135.417ZM130 21.6666C108.574 21.6666 87.6289 28.0203 69.8136 39.9241C51.9983 51.8279 38.1129 68.7473 29.9134 88.5426C21.7139 108.338 19.5686 130.12 23.7486 151.135C27.9287 172.149 38.2465 191.453 53.3971 206.603C68.5478 221.754 87.851 232.072 108.866 236.252C129.88 240.432 151.662 238.286 171.458 230.087C191.253 221.887 208.172 208.002 220.076 190.187C231.98 172.371 238.334 151.426 238.334 130C238.302 101.278 226.878 73.7415 206.568 53.432C186.259 33.1225 158.722 21.6986 130 21.6666ZM130 216.667C112.859 216.667 96.1032 211.584 81.8509 202.061C67.5987 192.538 56.4904 179.002 49.9308 163.166C43.3712 147.33 41.6549 129.904 44.999 113.092C48.343 96.2804 56.5972 80.8379 68.7178 68.7174C80.8383 56.5968 96.2809 48.3426 113.093 44.9986C129.904 41.6545 147.33 43.3708 163.166 49.9304C179.003 56.49 192.538 67.5983 202.061 81.8505C211.584 96.1028 216.667 112.859 216.667 130C216.641 152.977 207.501 175.006 191.254 191.254C175.006 207.501 152.978 216.64 130 216.667Z" fill="#F2C94C"/>
</svg>
