<svg width="22" height="22" viewBox="0 0 22 22" fill="none" xmlns="http://www.w3.org/2000/svg">
<g clip-path="url(#clip0_905_128)">
<path d="M0.833496 10.8952C0.833496 16.6378 5.48601 21.2903 11.2287 21.2903C16.9713 21.2903 21.6238 16.6378 21.6238 10.8952C21.6238 5.15251 16.9713 0.5 11.2287 0.5C5.48601 0.5 0.833496 5.16225 0.833496 10.8952Z" fill="url(#paint0_linear_905_128)"/>
<path d="M3.45264 4.00398C8.47502 3.57572 13.9841 3.56599 19.0064 4.00398C17.0987 1.85293 14.3247 0.5 11.2295 0.5C8.13435 0.5 5.36037 1.85293 3.45264 4.00398Z" fill="#4B4B4B"/>
<path d="M19.1131 17.6792C14.2368 18.0588 8.43572 18.088 3.34521 17.6792C5.25293 19.8984 8.0756 21.3 11.2292 21.3C14.3828 21.3 17.2054 19.8887 19.1131 17.6792Z" fill="#4B4B4B"/>
<path d="M1.17416 8.25764C7.9388 8.14084 14.5282 8.12137 21.2831 8.25764C21.507 9.10443 21.6238 9.99016 21.6238 10.8954C21.6238 11.6838 21.5362 12.4624 21.3707 13.2021C14.5282 13.3968 7.7928 13.3481 1.08656 13.2021C0.921096 12.4624 0.833496 11.6935 0.833496 10.8954C0.833496 9.99016 0.950296 9.10443 1.17416 8.25764Z" fill="#4B4B4B"/>
</g>
<defs>
<linearGradient id="paint0_linear_905_128" x1="0.833625" y1="10.8942" x2="21.6248" y2="10.8942" gradientUnits="userSpaceOnUse">
<stop stop-color="#FAA61A"/>
<stop offset="1" stop-color="#FFE100"/>
</linearGradient>
<clipPath id="clip0_905_128">
<rect width="21" height="21" fill="white" transform="translate(0.833496 0.5)"/>
</clipPath>
</defs>
</svg>
