<svg width="40" height="40" viewBox="0 0 40 40" fill="none" xmlns="http://www.w3.org/2000/svg">
<rect width="40" height="40" rx="5" fill="url(#paint0_linear_819_2916)" fill-opacity="0.5"/>
<path d="M17.7625 23.4375C17.8787 23.5547 18.017 23.6477 18.1693 23.7111C18.3216 23.7746 18.485 23.8072 18.65 23.8072C18.815 23.8072 18.9784 23.7746 19.1307 23.7111C19.283 23.6477 19.4213 23.5547 19.5375 23.4375L24.6375 18.3375C24.8729 18.1021 25.0051 17.7829 25.0051 17.45C25.0051 17.1171 24.8729 16.7979 24.6375 16.5625C24.4021 16.3271 24.0829 16.1949 23.75 16.1949C23.4171 16.1949 23.0979 16.3271 22.8625 16.5625L18.65 20.7875L17.1375 19.2625C16.9021 19.0271 16.5829 18.8949 16.25 18.8949C15.9171 18.8949 15.5979 19.0271 15.3625 19.2625C15.1271 19.4979 14.9949 19.8171 14.9949 20.15C14.9949 20.4829 15.1271 20.8021 15.3625 21.0375L17.7625 23.4375ZM31.25 7.5H8.75C8.41848 7.5 8.10054 7.6317 7.86612 7.86612C7.6317 8.10054 7.5 8.41848 7.5 8.75V31.25C7.5 31.5815 7.6317 31.8995 7.86612 32.1339C8.10054 32.3683 8.41848 32.5 8.75 32.5H31.25C31.5815 32.5 31.8995 32.3683 32.1339 32.1339C32.3683 31.8995 32.5 31.5815 32.5 31.25V8.75C32.5 8.41848 32.3683 8.10054 32.1339 7.86612C31.8995 7.6317 31.5815 7.5 31.25 7.5ZM30 30H10V10H30V30Z" fill="white"/>
<defs>
<linearGradient id="paint0_linear_819_2916" x1="20" y1="0" x2="20" y2="40" gradientUnits="userSpaceOnUse">
<stop stop-color="#71EA87"/>
<stop offset="1" stop-color="#24AA2D"/>
</linearGradient>
</defs>
</svg>
