<svg width="8" height="6" viewBox="0 0 8 6" fill="none" xmlns="http://www.w3.org/2000/svg">
<path fill-rule="evenodd" clip-rule="evenodd" d="M2.82834 5.37511C2.73085 5.3345 2.64237 5.27498 2.568 5.2L1.032 3.664C0.881357 3.51336 0.796727 3.30904 0.796727 3.096C0.796727 2.88296 0.881357 2.67864 1.032 2.528C1.18264 2.37736 1.38696 2.29273 1.6 2.29273C1.81304 2.29273 2.01736 2.37736 2.168 2.528L3.136 3.504L5.832 0.8C5.98264 0.649357 6.18696 0.564727 6.4 0.564727C6.61304 0.564727 6.81736 0.649357 6.968 0.8C7.11864 0.950643 7.20327 1.15496 7.20327 1.368C7.20327 1.58104 7.11864 1.78536 6.968 1.936L3.704 5.2C3.62963 5.27498 3.54115 5.3345 3.44366 5.37511C3.34617 5.41573 3.24161 5.43664 3.136 5.43664C3.03039 5.43664 2.92583 5.41573 2.82834 5.37511Z" fill="url(#paint0_linear_1041_2481)"/>
<defs>
<linearGradient id="paint0_linear_1041_2481" x1="4" y1="-5" x2="4" y2="11" gradientUnits="userSpaceOnUse">
<stop stop-color="#71EA87"/>
<stop offset="1" stop-color="#24AA2D"/>
</linearGradient>
</defs>
</svg>
