<svg width="56" height="56" viewBox="0 0 56 56" fill="none" xmlns="http://www.w3.org/2000/svg">
<path d="M7.16661 22.4444H22.4444C24.3889 22.4399 26.2706 21.7555 27.7637 20.5097C29.2568 19.2639 30.2672 17.5352 30.62 15.623C30.9727 13.7107 30.6457 11.7353 29.6954 10.0388C28.7451 8.34223 27.2315 7.03143 25.4166 6.33333C24.3722 4.28343 22.7173 2.60826 20.6802 1.53907C18.6431 0.469868 16.3244 0.0593666 14.044 0.364224C11.7637 0.669082 9.63422 1.67426 7.94955 3.24102C6.26487 4.80778 5.10807 6.85885 4.63883 9.11111C3.17997 9.73097 1.97706 10.8313 1.22991 12.2292C0.482765 13.6272 0.236352 15.2387 0.531601 16.7961C0.82685 18.3534 1.64599 19.7629 2.85296 20.7904C4.05993 21.8179 5.5821 22.4016 7.16661 22.4444ZM7.16661 14.1111C7.90332 14.1111 8.60986 13.8185 9.1308 13.2975C9.65173 12.7766 9.94439 12.07 9.94439 11.3333C9.95356 10.023 10.4256 8.75803 11.2772 7.76203C12.1287 6.76603 13.3049 6.10309 14.5979 5.89036C15.8909 5.67763 17.2175 5.9288 18.3433 6.59948C19.469 7.27017 20.3214 8.3172 20.7499 9.55555C20.9129 10.0277 21.2002 10.4472 21.5815 10.7698C21.9628 11.0925 22.424 11.3063 22.9166 11.3889C23.5594 11.4998 24.1426 11.8333 24.5641 12.331C24.9857 12.8287 25.2186 13.4589 25.2222 14.1111C25.2222 14.8478 24.9295 15.5544 24.4086 16.0753C23.8876 16.5962 23.1811 16.8889 22.4444 16.8889H7.16661C6.79826 16.8889 6.44499 16.7426 6.18452 16.4821C5.92405 16.2216 5.77772 15.8684 5.77772 15.5C5.77772 15.1316 5.92405 14.7784 6.18452 14.5179C6.44499 14.2574 6.79826 14.1111 7.16661 14.1111ZM47.4444 0.222221H33.5555C32.8188 0.222221 32.1122 0.514879 31.5913 1.03581C31.0704 1.55675 30.7777 2.26329 30.7777 3C30.7777 3.73671 31.0704 4.44325 31.5913 4.96418C32.1122 5.48512 32.8188 5.77778 33.5555 5.77778H47.4444C48.1811 5.77778 48.8876 6.07044 49.4086 6.59137C49.9295 7.1123 50.2222 7.81884 50.2222 8.55555V28H2.99995C2.26323 28 1.55669 28.2927 1.03576 28.8136C0.514826 29.3345 0.222168 30.0411 0.222168 30.7778V36.3333C0.222168 38.5435 1.10014 40.6631 2.66295 42.2259C4.22575 43.7887 6.34536 44.6667 8.5555 44.6667H16.8888V50.2222H8.5555C7.81879 50.2222 7.11225 50.5149 6.59132 51.0358C6.07038 51.5567 5.77772 52.2633 5.77772 53C5.77772 53.7367 6.07038 54.4432 6.59132 54.9642C7.11225 55.4851 7.81879 55.7778 8.5555 55.7778H47.4444C48.1811 55.7778 48.8876 55.4851 49.4086 54.9642C49.9295 54.4432 50.2222 53.7367 50.2222 53C50.2222 52.2633 49.9295 51.5567 49.4086 51.0358C48.8876 50.5149 48.1811 50.2222 47.4444 50.2222H39.1111V44.6667H47.4444C49.6545 44.6667 51.7741 43.7887 53.3369 42.2259C54.8997 40.6631 55.7777 38.5435 55.7777 36.3333V8.55555C55.7777 6.34542 54.8997 4.2258 53.3369 2.663C51.7741 1.1002 49.6545 0.222221 47.4444 0.222221ZM33.5555 50.2222H22.4444V44.6667H33.5555V50.2222ZM50.2222 36.3333C50.2222 37.07 49.9295 37.7766 49.4086 38.2975C48.8876 38.8185 48.1811 39.1111 47.4444 39.1111H8.5555C7.81879 39.1111 7.11225 38.8185 6.59132 38.2975C6.07038 37.7766 5.77772 37.07 5.77772 36.3333V33.5556H50.2222V36.3333Z" fill="white"/>
</svg>
