<svg width="40" height="40" viewBox="0 0 40 40" fill="none" xmlns="http://www.w3.org/2000/svg">
<rect width="40" height="40" rx="5" fill="url(#paint0_linear_819_2917)" fill-opacity="0.5"/>
<path d="M15.5848 15.4932L15.5819 15.4955L15.5793 15.4981L15.5848 15.4932ZM28.0274 15.26C27.9404 15.1762 27.8439 15.1029 27.7399 15.0415C27.5926 14.9548 27.4291 14.8993 27.2596 14.8783C27.09 14.8573 26.9179 14.8714 26.7539 14.9195C26.59 14.9677 26.4376 15.049 26.3064 15.1584C26.1751 15.2677 26.0676 15.4029 25.9906 15.5554C25.56 16.4038 24.9662 17.1588 24.2431 17.7771C24.3537 17.1541 24.4094 16.5226 24.4098 15.8899C24.4121 13.965 23.9043 12.0739 22.9381 10.4091C21.9719 8.7443 20.5817 7.36526 18.9093 6.4124C18.725 6.30796 18.5173 6.25204 18.3055 6.24988C18.0937 6.24773 17.8849 6.29941 17.6985 6.40008C17.5122 6.50075 17.3545 6.6471 17.2402 6.82541C17.126 7.00372 17.0589 7.20814 17.0453 7.41949C16.9753 8.60471 16.6655 9.76338 16.1345 10.8253C15.6035 11.8873 14.8625 12.8303 13.9563 13.5974L13.6682 13.8318C12.7206 14.4694 11.8818 15.2554 11.1841 16.1597C10.0995 17.5261 9.34813 19.1264 8.98965 20.8337C8.63116 22.541 8.67539 24.3083 9.11882 25.9955C9.56225 27.6828 10.3927 29.2435 11.5443 30.5539C12.6959 31.8643 14.1369 32.8884 15.7532 33.5449C15.943 33.6225 16.1489 33.6521 16.3529 33.6313C16.5568 33.6104 16.7525 33.5397 16.9226 33.4254C17.0928 33.311 17.2322 33.1565 17.3285 32.9756C17.4248 32.7946 17.4752 32.5927 17.475 32.3877C17.4741 32.2551 17.4532 32.1234 17.4128 31.9971C17.1331 30.9459 17.0526 29.8516 17.1754 28.7708C18.3582 31.0017 20.2568 32.77 22.566 33.7915C22.8478 33.9176 23.1665 33.9346 23.4602 33.8391C25.2846 33.2503 26.9282 32.2047 28.2347 30.8017C29.5412 29.3987 30.4673 27.685 30.925 25.8233C31.3827 23.9616 31.3567 22.0138 30.8495 20.1649C30.3424 18.3161 29.3709 16.6277 28.0274 15.26ZM23.1464 31.2989C22.0568 30.7466 21.0956 29.9713 20.3253 29.0232C19.5551 28.0751 18.993 26.9755 18.6756 25.7959C18.5786 25.3987 18.5037 24.9965 18.451 24.5911C18.4153 24.3329 18.2998 24.0923 18.1206 23.903C17.9415 23.7137 17.7076 23.5851 17.4518 23.5352C17.373 23.5196 17.2929 23.5119 17.2125 23.512C16.9928 23.5119 16.777 23.5698 16.5868 23.6797C16.3966 23.7897 16.2387 23.9478 16.1292 24.1382C15.092 25.9271 14.5704 27.9683 14.6222 30.0354C13.71 29.3262 12.9476 28.443 12.3793 27.4369C11.811 26.4309 11.4479 25.3221 11.3113 24.1747C11.1746 23.0273 11.2671 21.8642 11.5832 20.7529C11.8994 19.6415 12.433 18.6039 13.1531 17.7003C13.6999 16.99 14.3595 16.3744 15.1056 15.8777C15.1379 15.8569 15.1689 15.8341 15.1984 15.8094C15.1984 15.8094 15.5692 15.5025 15.5819 15.4955C17.3628 13.9892 18.6294 11.9649 19.2053 9.70465C20.5673 10.9637 21.4754 12.6372 21.7888 14.4653C22.1021 16.2934 21.8031 18.1738 20.9381 19.8145C20.8238 20.0335 20.777 20.2813 20.8034 20.5269C20.8298 20.7724 20.9284 21.0046 21.0866 21.1942C21.2449 21.3838 21.4558 21.5223 21.6926 21.5922C21.9295 21.6621 22.1818 21.6603 22.4176 21.587C24.3323 20.9868 26.0172 19.8144 27.2455 18.2276C27.9837 19.318 28.4663 20.5609 28.6574 21.8637C28.8484 23.1665 28.743 24.4957 28.349 25.7521C27.955 27.0085 27.2826 28.1598 26.3817 29.1202C25.4809 30.0806 24.375 30.8253 23.1464 31.2989L23.1464 31.2989Z" fill="white"/>
<defs>
<linearGradient id="paint0_linear_819_2917" x1="20" y1="0" x2="20" y2="40" gradientUnits="userSpaceOnUse">
<stop stop-color="#71EA87"/>
<stop offset="1" stop-color="#24AA2D"/>
</linearGradient>
</defs>
</svg>
