<svg width="40" height="40" viewBox="0 0 40 40" fill="none" xmlns="http://www.w3.org/2000/svg">
<rect width="40" height="40" rx="5" fill="url(#paint0_linear_819_2915)" fill-opacity="0.5"/>
<path d="M29.8627 16.9375C29.7588 16.7313 29.5999 16.558 29.4035 16.4366C29.2072 16.3153 28.981 16.2507 28.7502 16.25H22.5002V8.74999C22.5136 8.47585 22.4364 8.20491 22.2805 7.97899C22.1247 7.75308 21.8988 7.58475 21.6377 7.49999C21.3867 7.41742 21.116 7.41649 20.8645 7.49734C20.613 7.57819 20.3935 7.73666 20.2377 7.94999L10.2377 21.7C10.1124 21.8811 10.0372 22.092 10.0196 22.3115C10.002 22.531 10.0428 22.7513 10.1377 22.95C10.2251 23.1772 10.3769 23.3739 10.5746 23.516C10.7722 23.6581 11.007 23.7394 11.2502 23.75H17.5002V31.25C17.5004 31.5136 17.5839 31.7704 17.7388 31.9837C17.8937 32.1969 18.1121 32.3558 18.3627 32.4375C18.4883 32.4764 18.6187 32.4975 18.7502 32.5C18.9474 32.5005 19.142 32.4543 19.318 32.3653C19.4939 32.2762 19.6463 32.1467 19.7627 31.9875L29.7627 18.2375C29.8974 18.051 29.978 17.8309 29.9956 17.6016C30.0133 17.3722 29.9673 17.1424 29.8627 16.9375ZM20.0002 27.4V22.5C20.0002 22.1685 19.8685 21.8505 19.6341 21.6161C19.3997 21.3817 19.0817 21.25 18.7502 21.25H13.7502L20.0002 12.6V17.5C20.0002 17.8315 20.1319 18.1495 20.3663 18.3839C20.6007 18.6183 20.9187 18.75 21.2502 18.75H26.2502L20.0002 27.4Z" fill="white"/>
<defs>
<linearGradient id="paint0_linear_819_2915" x1="20" y1="0" x2="20" y2="40" gradientUnits="userSpaceOnUse">
<stop stop-color="#71EA87"/>
<stop offset="1" stop-color="#24AA2D"/>
</linearGradient>
</defs>
</svg>
