<svg width="56" height="56" viewBox="0 0 56 56" fill="none" xmlns="http://www.w3.org/2000/svg">
<path d="M43.2223 12.8611L35.3334 4.97222C35.0752 4.71186 34.768 4.50521 34.4295 4.36419C34.091 4.22316 33.7279 4.15056 33.3612 4.15056C32.9945 4.15056 32.6314 4.22316 32.2929 4.36419C31.9544 4.50521 31.6472 4.71186 31.389 4.97222C30.8716 5.49267 30.5812 6.1967 30.5812 6.93055C30.5812 7.6644 30.8716 8.36843 31.389 8.88888L37.2779 14.7778L14.7779 37.2778L8.88897 31.3889C8.36852 30.8715 7.66449 30.5811 6.93064 30.5811C6.19679 30.5811 5.49275 30.8715 4.9723 31.3889C4.71195 31.6471 4.5053 31.9543 4.36427 32.2928C4.22325 32.6313 4.15064 32.9944 4.15064 33.3611C4.15064 33.7278 4.22325 34.0909 4.36427 34.4294C4.5053 34.7679 4.71195 35.0751 4.9723 35.3333L12.7779 43.1389L20.5834 50.9444C20.8407 51.2069 21.1475 51.4157 21.486 51.5588C21.8246 51.7018 22.1881 51.7762 22.5556 51.7778C23.1074 51.781 23.6476 51.6198 24.1073 51.3148C24.5671 51.0098 24.9256 50.5748 25.1372 50.0652C25.3488 49.5556 25.4038 48.9946 25.2953 48.4537C25.1868 47.9127 24.9196 47.4163 24.5279 47.0278L18.7223 41.2222L41.2223 18.7222L47.1112 24.6111C47.3702 24.8683 47.6773 25.0719 48.015 25.2104C48.3527 25.3489 48.7144 25.4195 49.0793 25.4182C49.4443 25.4169 49.8055 25.3437 50.1422 25.2029C50.4789 25.062 50.7846 24.8562 51.0417 24.5972C51.2989 24.3382 51.5026 24.0311 51.641 23.6934C51.7795 23.3557 51.8501 22.994 51.8488 22.6291C51.8476 22.2641 51.7744 21.9029 51.6335 21.5662C51.4927 21.2295 51.2869 20.9238 51.0279 20.6667L43.2223 12.8611ZM4.9723 43.1667C4.44924 42.6436 3.73981 42.3497 3.00008 42.3497C2.26035 42.3497 1.55092 42.6436 1.02786 43.1667C0.504793 43.6897 0.210938 44.3992 0.210938 45.1389C0.210937 45.8786 0.504793 46.588 1.02786 47.1111L8.88897 54.9722C9.14853 55.2297 9.45635 55.4333 9.79479 55.5716C10.1332 55.7098 10.4956 55.7799 10.8612 55.7778C11.2268 55.7799 11.5892 55.7098 11.9276 55.5716C12.266 55.4333 12.5739 55.2297 12.8334 54.9722C13.0938 54.714 13.3004 54.4068 13.4414 54.0683C13.5825 53.7298 13.6551 53.3667 13.6551 53C13.6551 52.6333 13.5825 52.2702 13.4414 51.9317C13.3004 51.5932 13.0938 51.286 12.8334 51.0278L4.9723 43.1667ZM54.9723 8.88888L47.1112 1.02777C46.8522 0.768779 46.5447 0.563332 46.2063 0.423164C45.8679 0.282997 45.5052 0.210854 45.139 0.210854C44.7727 0.210854 44.41 0.282997 44.0716 0.423164C43.7332 0.563332 43.4257 0.768779 43.1667 1.02777C42.9077 1.28677 42.7023 1.59424 42.5621 1.93264C42.422 2.27103 42.3498 2.63372 42.3498 3C42.3498 3.36627 42.422 3.72896 42.5621 4.06736C42.7023 4.40575 42.9077 4.71322 43.1667 4.97222L51.0279 12.8333C51.2861 13.0937 51.5933 13.3003 51.9318 13.4414C52.2703 13.5824 52.6334 13.655 53.0001 13.655C53.3668 13.655 53.7298 13.5824 54.0683 13.4414C54.4068 13.3003 54.7141 13.0937 54.9723 12.8333C55.2327 12.5751 55.4393 12.2679 55.5803 11.9294C55.7214 11.5909 55.794 11.2278 55.794 10.8611C55.794 10.4944 55.7214 10.1313 55.5803 9.79284C55.4393 9.45434 55.2327 9.14712 54.9723 8.88888Z" fill="white"/>
</svg>
