<svg width="14" height="14" viewBox="0 0 14 14" fill="none" xmlns="http://www.w3.org/2000/svg">
<path d="M7.66683 9.66667H3.66683C3.49002 9.66667 3.32045 9.73691 3.19543 9.86193C3.07041 9.98696 3.00017 10.1565 3.00017 10.3333C3.00017 10.5101 3.07041 10.6797 3.19543 10.8047C3.32045 10.9298 3.49002 11 3.66683 11H7.66683C7.84365 11 8.01322 10.9298 8.13824 10.8047C8.26326 10.6797 8.3335 10.5101 8.3335 10.3333C8.3335 10.1565 8.26326 9.98696 8.13824 9.86193C8.01322 9.73691 7.84365 9.66667 7.66683 9.66667ZM5.00017 5.66667H6.3335C6.51031 5.66667 6.67988 5.59643 6.80491 5.47141C6.92993 5.34639 7.00017 5.17682 7.00017 5C7.00017 4.82319 6.92993 4.65362 6.80491 4.5286C6.67988 4.40358 6.51031 4.33334 6.3335 4.33334H5.00017C4.82336 4.33334 4.65379 4.40358 4.52876 4.5286C4.40374 4.65362 4.3335 4.82319 4.3335 5C4.3335 5.17682 4.40374 5.34639 4.52876 5.47141C4.65379 5.59643 4.82336 5.66667 5.00017 5.66667ZM13.0002 7.00001H11.0002V1C11.0006 0.882532 10.9701 0.767021 10.9115 0.665169C10.853 0.563317 10.7686 0.478741 10.6668 0.420005C10.5655 0.361493 10.4505 0.330688 10.3335 0.330688C10.2165 0.330688 10.1015 0.361493 10.0002 0.420005L8.00017 1.56667L6.00017 0.420005C5.89882 0.361493 5.78386 0.330688 5.66683 0.330688C5.54981 0.330688 5.43485 0.361493 5.3335 0.420005L3.3335 1.56667L1.3335 0.420005C1.23216 0.361493 1.11719 0.330688 1.00017 0.330688C0.883144 0.330688 0.768181 0.361493 0.666835 0.420005C0.565098 0.478741 0.480689 0.563317 0.422153 0.665169C0.363618 0.767021 0.333035 0.882532 0.333501 1V11.6667C0.333501 12.1971 0.544215 12.7058 0.919288 13.0809C1.29436 13.456 1.80307 13.6667 2.3335 13.6667H11.6668C12.1973 13.6667 12.706 13.456 13.081 13.0809C13.4561 12.7058 13.6668 12.1971 13.6668 11.6667V7.66667C13.6668 7.48986 13.5966 7.32029 13.4716 7.19527C13.3465 7.07024 13.177 7.00001 13.0002 7.00001ZM2.3335 12.3333C2.15669 12.3333 1.98712 12.2631 1.8621 12.1381C1.73707 12.0131 1.66683 11.8435 1.66683 11.6667V2.15334L3.00017 2.91334C3.10306 2.96708 3.21742 2.99515 3.3335 2.99515C3.44958 2.99515 3.56394 2.96708 3.66683 2.91334L5.66683 1.76667L7.66683 2.91334C7.76973 2.96708 7.88409 2.99515 8.00017 2.99515C8.11625 2.99515 8.23061 2.96708 8.3335 2.91334L9.66683 2.15334V11.6667C9.66864 11.8941 9.70922 12.1196 9.78683 12.3333H2.3335ZM12.3335 11.6667C12.3335 11.8435 12.2633 12.0131 12.1382 12.1381C12.0132 12.2631 11.8436 12.3333 11.6668 12.3333C11.49 12.3333 11.3205 12.2631 11.1954 12.1381C11.0704 12.0131 11.0002 11.8435 11.0002 11.6667V8.33334H12.3335V11.6667ZM7.66683 7.00001H3.66683C3.49002 7.00001 3.32045 7.07024 3.19543 7.19527C3.07041 7.32029 3.00017 7.48986 3.00017 7.66667C3.00017 7.84348 3.07041 8.01305 3.19543 8.13808C3.32045 8.2631 3.49002 8.33334 3.66683 8.33334H7.66683C7.84365 8.33334 8.01322 8.2631 8.13824 8.13808C8.26326 8.01305 8.3335 7.84348 8.3335 7.66667C8.3335 7.48986 8.26326 7.32029 8.13824 7.19527C8.01322 7.07024 7.84365 7.00001 7.66683 7.00001Z" fill="url(#paint0_linear_817_2779)"/>
<defs>
<linearGradient id="paint0_linear_817_2779" x1="7.00017" y1="0.330688" x2="7.00017" y2="13.6667" gradientUnits="userSpaceOnUse">
<stop stop-color="#71EA87"/>
<stop offset="1" stop-color="#24AA2D"/>
</linearGradient>
</defs>
</svg>
