<svg width="30" height="30" viewBox="0 0 30 30" fill="none" xmlns="http://www.w3.org/2000/svg">
<g clip-path="url(#clip0_905_35)">
<rect width="30" height="30" rx="5" fill="url(#paint0_linear_905_35)"/>
<path d="M18 14.5801C18 16.1658 16.5857 17.5801 15 17.5801C13.4143 17.5801 12 16.1658 12 14.5801C12 12.9944 13.4143 11.5801 15 11.5801C16.5857 11.5801 18 12.9944 18 14.5801Z" fill="#1F1F1F"/>
<path d="M22.6072 8.8249C22.4508 8.40119 22.2013 8.01767 21.8772 7.70288C21.5624 7.37874 21.1791 7.12929 20.7552 6.97293C20.4113 6.83938 19.8948 6.68043 18.9434 6.63713C17.9142 6.59019 17.6056 6.58008 15.0001 6.58008C12.3944 6.58008 12.0858 6.58993 11.0569 6.63687C10.1055 6.68043 9.58866 6.83938 9.24508 6.97293C8.82111 7.12929 8.4376 7.37874 8.12306 7.70288C7.79892 8.01767 7.54947 8.40093 7.39285 8.8249C7.25931 9.16874 7.10035 9.68553 7.05705 10.6369C7.01011 11.6659 7 11.9744 7 14.5802C7 17.1857 7.01011 17.4943 7.05705 18.5235C7.10035 19.4749 7.25931 19.9914 7.39285 20.3353C7.54947 20.7592 7.79866 21.1425 8.1228 21.4573C8.4376 21.7814 8.82085 22.0309 9.24482 22.1872C9.58866 22.321 10.1055 22.48 11.0569 22.5233C12.0858 22.5702 12.3941 22.5801 14.9999 22.5801C17.6059 22.5801 17.9145 22.5702 18.9431 22.5233C19.8945 22.48 20.4113 22.321 20.7552 22.1872C21.6062 21.8589 22.2789 21.1863 22.6072 20.3353C22.7407 19.9914 22.8996 19.4749 22.9432 18.5235C22.9901 17.4943 23 17.1857 23 14.5802C23 11.9744 22.9901 11.6659 22.9432 10.6369C22.8999 9.68553 22.741 9.16874 22.6072 8.8249ZM14.9305 19.6088C12.1629 19.6088 9.83232 17.2782 9.83232 14.5106C9.83232 11.743 12.1629 9.4124 14.9305 9.4124C17.6978 9.4124 20.0287 11.743 20.0287 14.5106C20.0287 17.2782 17.6978 19.6088 14.9305 19.6088ZM20.2091 10.542C19.5624 10.542 19.0381 10.0177 19.0381 9.371C19.0381 8.72428 19.5624 8.19997 20.2091 8.19997C20.8558 8.19997 21.3801 8.72428 21.3801 9.371C21.3799 10.0177 20.8558 10.542 20.2091 10.542Z" fill="#1F1F1F"/>
</g>
<defs>
<linearGradient id="paint0_linear_905_35" x1="0.333333" y1="14.4088" x2="28.6752" y2="14.8593" gradientUnits="userSpaceOnUse">
<stop stop-color="#DADADA"/>
<stop offset="1" stop-color="white"/>
</linearGradient>
<clipPath id="clip0_905_35">
<rect width="30" height="30" fill="white"/>
</clipPath>
</defs>
</svg>
