<svg width="14" height="14" viewBox="0 0 14 14" fill="none" xmlns="http://www.w3.org/2000/svg">
<path d="M13.0002 1.66671H11.0002V1.00004C11.0002 0.82323 10.9299 0.65366 10.8049 0.528636C10.6799 0.403612 10.5103 0.333374 10.3335 0.333374H3.66683C3.49002 0.333374 3.32045 0.403612 3.19542 0.528636C3.0704 0.65366 3.00016 0.82323 3.00016 1.00004V1.66671H1.00016C0.823352 1.66671 0.653782 1.73695 0.528758 1.86197C0.403734 1.98699 0.333496 2.15656 0.333496 2.33337V4.33337C0.333496 5.04062 0.614448 5.71889 1.11454 6.21899C1.61464 6.71909 2.29292 7.00004 3.00016 7.00004H4.02683C4.62985 7.6728 5.44287 8.12161 6.3335 8.27337V9.66671H5.66683C5.1364 9.66671 4.62769 9.87742 4.25262 10.2525C3.87754 10.6276 3.66683 11.1363 3.66683 11.6667V13C3.66683 13.1769 3.73707 13.3464 3.86209 13.4714C3.98712 13.5965 4.15668 13.6667 4.3335 13.6667H9.66683C9.84364 13.6667 10.0132 13.5965 10.1382 13.4714C10.2633 13.3464 10.3335 13.1769 10.3335 13V11.6667C10.3335 11.1363 10.1228 10.6276 9.74771 10.2525C9.37264 9.87742 8.86393 9.66671 8.3335 9.66671H7.66683V8.27337C8.55746 8.12161 9.37047 7.6728 9.97349 7.00004H11.0002C11.7074 7.00004 12.3857 6.71909 12.8858 6.21899C13.3859 5.71889 13.6668 5.04062 13.6668 4.33337V2.33337C13.6668 2.15656 13.5966 1.98699 13.4716 1.86197C13.3465 1.73695 13.177 1.66671 13.0002 1.66671ZM3.00016 5.66671C2.64654 5.66671 2.3074 5.52623 2.05735 5.27618C1.80731 5.02613 1.66683 4.687 1.66683 4.33337V3.00004H3.00016V4.33337C3.00163 4.78785 3.08054 5.23875 3.2335 5.66671H3.00016ZM8.3335 11C8.51031 11 8.67988 11.0703 8.8049 11.1953C8.92992 11.3203 9.00016 11.4899 9.00016 11.6667V12.3334H5.00016V11.6667C5.00016 11.4899 5.0704 11.3203 5.19542 11.1953C5.32045 11.0703 5.49002 11 5.66683 11H8.3335ZM9.66683 4.33337C9.66683 5.04062 9.38588 5.71889 8.88578 6.21899C8.38568 6.71909 7.70741 7.00004 7.00016 7.00004C6.29292 7.00004 5.61464 6.71909 5.11454 6.21899C4.61445 5.71889 4.3335 5.04062 4.3335 4.33337V1.66671H9.66683V4.33337ZM12.3335 4.33337C12.3335 4.687 12.193 5.02613 11.943 5.27618C11.6929 5.52623 11.3538 5.66671 11.0002 5.66671H10.7668C10.9198 5.23875 10.9987 4.78785 11.0002 4.33337V3.00004H12.3335V4.33337Z" fill="url(#paint0_linear_817_2771)"/>
<defs>
<linearGradient id="paint0_linear_817_2771" x1="7.00016" y1="0.333374" x2="7.00016" y2="13.6667" gradientUnits="userSpaceOnUse">
<stop stop-color="#71EA87"/>
<stop offset="1" stop-color="#24AA2D"/>
</linearGradient>
</defs>
</svg>
