<svg width="56" height="56" viewBox="0 0 56 56" fill="none" xmlns="http://www.w3.org/2000/svg">
<path d="M37.8054 33.9166C37.5471 33.6563 37.2399 33.4496 36.9014 33.3086C36.5629 33.1676 36.1999 33.095 35.8332 33.095C35.4665 33.095 35.1034 33.1676 34.7649 33.3086C34.4264 33.4496 34.1192 33.6563 33.8609 33.9166C33.3436 34.4371 33.0532 35.1411 33.0532 35.875C33.0532 36.6088 33.3436 37.3129 33.8609 37.8333L51.0276 55C51.2858 55.2603 51.5931 55.467 51.9316 55.608C52.2701 55.749 52.6331 55.8216 52.9998 55.8216C53.3665 55.8216 53.7296 55.749 54.0681 55.608C54.4066 55.467 54.7138 55.2603 54.972 55C55.4894 54.4795 55.7798 53.7755 55.7798 53.0416C55.7798 52.3078 55.4894 51.6038 54.972 51.0833L37.8054 33.9166ZM41.222 27C43.4314 26.998 45.5496 26.1188 47.1109 24.5555L54.972 16.6944C55.4894 16.174 55.7798 15.4699 55.7798 14.7361C55.7798 14.0022 55.4894 13.2982 54.972 12.7778C54.7138 12.5174 54.4066 12.3107 54.0681 12.1697C53.7296 12.0287 53.3665 11.9561 52.9998 11.9561C52.6331 11.9561 52.2701 12.0287 51.9316 12.1697C51.5931 12.3107 51.2858 12.5174 51.0276 12.7778L43.1665 20.6389C42.646 21.1562 41.942 21.4466 41.2081 21.4466C40.4743 21.4466 39.7703 21.1562 39.2498 20.6389L49.0832 10.8055C49.6005 10.2851 49.8909 9.58105 49.8909 8.8472C49.8909 8.11335 49.6005 7.40932 49.0832 6.88887C48.8249 6.62851 48.5177 6.42186 48.1792 6.28083C47.8407 6.13981 47.4776 6.0672 47.1109 6.0672C46.7442 6.0672 46.3812 6.13981 46.0427 6.28083C45.7042 6.42186 45.3969 6.62851 45.1387 6.88887L35.3332 16.6944C34.8158 16.174 34.5254 15.4699 34.5254 14.7361C34.5254 14.0022 34.8158 13.2982 35.3332 12.7778L43.1665 4.91664C43.4573 4.66762 43.6934 4.36118 43.8602 4.01656C44.0269 3.67194 44.1206 3.29657 44.1354 2.91401C44.1501 2.53146 44.0857 2.14998 43.946 1.79352C43.8064 1.43707 43.5946 1.11332 43.3238 0.842614C43.0531 0.571907 42.7294 0.36008 42.3729 0.220428C42.0165 0.0807764 41.635 0.0163158 41.2524 0.0310922C40.8699 0.0458685 40.4945 0.139563 40.1499 0.306294C39.8053 0.473026 39.4988 0.709194 39.2498 0.999977L31.3887 8.86109C29.8281 10.4236 28.9516 12.5416 28.9516 14.75C28.9516 16.9583 29.8281 19.0764 31.3887 20.6389L27.9998 24.0833L23.6665 19.8055C24.8963 17.586 25.3614 15.0233 24.9899 12.5131C24.6184 10.0029 23.431 7.68482 21.6109 5.91664C17.6109 1.91664 7.24982 -2.55558 2.36093 2.41664C-2.52796 7.38886 1.88871 17.6389 5.7776 21.6666C7.94935 23.8462 10.8692 25.1174 13.9443 25.2222H14.3332C16.2113 25.1955 18.0498 24.6784 19.6665 23.7222L24.0276 28L1.0276 51C0.770427 51.259 0.566786 51.5661 0.428304 51.9038C0.289821 52.2415 0.219209 52.6031 0.220498 52.9681C0.221788 53.3331 0.294954 53.6943 0.43582 54.031C0.576685 54.3677 0.782492 54.6734 1.04149 54.9305C1.30048 55.1877 1.6076 55.3913 1.94529 55.5298C2.28299 55.6683 2.64466 55.7389 3.00964 55.7376C3.37463 55.7363 3.73579 55.6632 4.07249 55.5223C4.4092 55.3814 4.71487 55.1756 4.97204 54.9166L29.972 29.9166L35.3054 24.5833C36.084 25.3557 37.0075 25.9667 38.0228 26.3814C39.0381 26.7961 40.1253 27.0063 41.222 27ZM18.0832 18.1111C17.5628 18.6284 16.9417 19.0334 16.2584 19.301C15.5752 19.5685 14.8442 19.693 14.1109 19.6666C12.4871 19.5967 10.9536 18.8997 9.83315 17.7222C6.83315 14.7222 4.72204 7.91664 6.30538 6.33331C6.83128 5.93659 7.48106 5.73969 8.13871 5.77775C11.684 6.06033 15.0396 7.49429 17.6943 9.86109C18.8284 10.9103 19.5047 12.3632 19.5774 13.9065C19.6502 15.4498 19.1135 16.9598 18.0832 18.1111Z" fill="white"/>
</svg>
