<svg width="29" height="23" viewBox="0 0 29 23" fill="none" xmlns="http://www.w3.org/2000/svg">
<g clip-path="url(#clip0_905_80)">
<path d="M27.9352 14.8357V14.5H27.8477L27.7465 14.7306L27.6458 14.5H27.5577V14.8357H27.6199V14.5826L27.7146 14.8011H27.7789L27.8736 14.582V14.8357H27.9352ZM27.38 14.8357V14.5573H27.4922V14.5006H27.2061V14.5573H27.3183V14.8357H27.38Z" fill="#0099DF"/>
<path d="M17.9863 16.2793H10.4131V2.66895H17.9863V16.2793Z" fill="#6C6BBD"/>
<path d="M10.8983 9.47328C10.8983 6.71235 12.191 4.253 14.2041 2.66809C12.732 1.50912 10.8741 0.817383 8.855 0.817383C4.07497 0.817383 0.200195 4.6927 0.200195 9.47328C0.200195 14.2539 4.07497 18.1292 8.855 18.1292C10.8741 18.1292 12.732 17.4374 14.2041 16.2785C12.191 14.6936 10.8983 12.2342 10.8983 9.47328Z" fill="#EB001B"/>
<path d="M28.2007 9.47328C28.2007 14.2539 24.3259 18.1292 19.5459 18.1292C17.5268 18.1292 15.6689 17.4374 14.1963 16.2785C16.2099 14.6936 17.5026 12.2342 17.5026 9.47328C17.5026 6.71235 16.2099 4.253 14.1963 2.66809C15.6689 1.50912 17.5268 0.817383 19.5459 0.817383C24.3259 0.817383 28.2007 4.6927 28.2007 9.47328Z" fill="#0099DF"/>
<path d="M20.5398 20.1234C20.6405 20.1234 20.7852 20.1426 20.8958 20.1861L20.7418 20.6572C20.6361 20.6137 20.5304 20.5994 20.4292 20.5994C20.1023 20.5994 19.9388 20.8107 19.9388 21.1904V22.4793H19.4386V20.1811H19.9339V20.4601C20.0638 20.2582 20.2514 20.1234 20.5398 20.1234ZM18.6918 20.6379H17.8746V21.6763C17.8746 21.9069 17.9561 22.061 18.2065 22.061C18.3363 22.061 18.4998 22.0175 18.6484 21.9311L18.7925 22.3587C18.634 22.4693 18.3842 22.537 18.1679 22.537C17.5763 22.537 17.37 22.2195 17.37 21.6857V20.6379H16.9033V20.1811H17.37V19.4839H17.8746V20.1811H18.6918V20.6379ZM12.2922 21.1282C12.3456 20.7964 12.547 20.5702 12.9031 20.5702C13.225 20.5702 13.4319 20.7722 13.4847 21.1282H12.2922ZM14.0042 21.3302C13.9993 20.6137 13.5568 20.1234 12.9124 20.1234C12.2394 20.1234 11.7683 20.6137 11.7683 21.3302C11.7683 22.0605 12.2586 22.5365 12.9465 22.5365C13.2927 22.5365 13.6097 22.4501 13.8887 22.2146L13.6432 21.8442C13.4512 21.9983 13.2057 22.0847 12.9752 22.0847C12.6532 22.0847 12.3599 21.9355 12.2878 21.5223H13.9943C13.9993 21.4595 14.0042 21.3973 14.0042 21.3302ZM16.2011 20.7678C16.0619 20.6808 15.7785 20.5702 15.4851 20.5702C15.2111 20.5702 15.0476 20.6715 15.0476 20.8399C15.0476 20.9934 15.2204 21.0369 15.4367 21.0655L15.6723 21.0991C16.1725 21.1717 16.4752 21.383 16.4752 21.787C16.4752 22.2245 16.0905 22.537 15.4274 22.537C15.052 22.537 14.7059 22.4407 14.4318 22.2388L14.6674 21.8491C14.8358 21.979 15.0862 22.0896 15.4323 22.0896C15.7735 22.0896 15.9562 21.9889 15.9562 21.8106C15.9562 21.6813 15.8263 21.6087 15.5523 21.5707L15.3167 21.5371C14.8022 21.4645 14.5232 21.2339 14.5232 20.8591C14.5232 20.4024 14.8985 20.1234 15.4802 20.1234C15.8456 20.1234 16.1774 20.2054 16.4174 20.3638L16.2011 20.7678ZM22.3674 20.5983C22.2645 20.5983 22.1693 20.6164 22.0807 20.6522C21.9926 20.6885 21.9161 20.7392 21.8517 20.8041C21.7873 20.869 21.7367 20.9472 21.6998 21.038C21.663 21.1288 21.6448 21.2289 21.6448 21.3379C21.6448 21.4474 21.663 21.547 21.6998 21.6378C21.7367 21.7286 21.7873 21.8068 21.8517 21.8717C21.9161 21.9366 21.9926 21.9873 22.0807 22.0236C22.1693 22.0599 22.2645 22.0775 22.3674 22.0775C22.4703 22.0775 22.566 22.0599 22.6541 22.0236C22.7427 21.9873 22.8197 21.9366 22.8841 21.8717C22.9496 21.8068 23.0002 21.7286 23.0377 21.6378C23.0745 21.547 23.0927 21.4474 23.0927 21.3379C23.0927 21.2289 23.0745 21.1288 23.0377 21.038C23.0002 20.9472 22.9496 20.869 22.8841 20.8041C22.8197 20.7392 22.7427 20.6885 22.6541 20.6522C22.566 20.6164 22.4703 20.5983 22.3674 20.5983ZM22.3674 20.1234C22.5457 20.1234 22.7108 20.1542 22.8627 20.2164C23.0146 20.278 23.1461 20.3633 23.2567 20.4717C23.3679 20.5801 23.4543 20.7083 23.517 20.8558C23.5797 21.0039 23.6111 21.1646 23.6111 21.3379C23.6111 21.5113 23.5797 21.6719 23.517 21.82C23.4543 21.9675 23.3679 22.0962 23.2567 22.2046C23.1461 22.3131 23.0146 22.3978 22.8627 22.46C22.7108 22.5216 22.5457 22.5524 22.3674 22.5524C22.1891 22.5524 22.024 22.5216 21.8721 22.46C21.7202 22.3978 21.5898 22.3131 21.4797 22.2046C21.3697 22.0962 21.2833 21.9675 21.2205 21.82C21.1578 21.6719 21.1264 21.5113 21.1264 21.3379C21.1264 21.1646 21.1578 21.0039 21.2205 20.8558C21.2833 20.7083 21.3697 20.5801 21.4797 20.4717C21.5898 20.3633 21.7202 20.278 21.8721 20.2164C22.024 20.1542 22.1891 20.1234 22.3674 20.1234ZM9.37114 21.3302C9.37114 20.9263 9.63585 20.5944 10.0684 20.5944C10.4817 20.5944 10.7607 20.912 10.7607 21.3302C10.7607 21.7484 10.4817 22.0654 10.0684 22.0654C9.63585 22.0654 9.37114 21.7341 9.37114 21.3302ZM11.2318 21.3302V20.1811H10.7321V20.4601C10.573 20.2532 10.3331 20.1234 10.0062 20.1234C9.36179 20.1234 8.85715 20.628 8.85715 21.3302C8.85715 22.0318 9.36179 22.537 10.0062 22.537C10.3331 22.537 10.573 22.4072 10.7321 22.2002V22.4793H11.2318V21.3302ZM8.4147 22.4793V21.0369C8.4147 20.4937 8.06855 20.1283 7.51108 20.1234C7.21776 20.1184 6.91454 20.2098 6.70322 20.5322C6.54473 20.2774 6.29433 20.1234 5.94323 20.1234C5.69834 20.1234 5.45786 20.1954 5.2702 20.4646V20.1811H4.77051V22.4793H5.27515V21.2053C5.27515 20.8063 5.49638 20.5944 5.83757 20.5944C6.16941 20.5944 6.33781 20.8107 6.33781 21.2003V22.4793H6.84245V21.2053C6.84245 20.8063 7.07358 20.5944 7.40487 20.5944C7.74662 20.5944 7.91006 20.8107 7.91006 21.2003V22.4793H8.4147Z" fill="white"/>
<path d="M24.1489 22.3067V22.3634H24.2012C24.2128 22.3634 24.2227 22.3607 24.2293 22.3563C24.2364 22.3519 24.2403 22.3442 24.2403 22.3348C24.2403 22.3254 24.2364 22.3183 24.2293 22.3139C24.2227 22.3089 24.2128 22.3067 24.2012 22.3067H24.1489ZM24.2017 22.2671C24.2287 22.2671 24.2496 22.2732 24.2645 22.2853C24.2793 22.2974 24.2865 22.3139 24.2865 22.3348C24.2865 22.3524 24.281 22.3667 24.2689 22.3783C24.2573 22.3893 24.2403 22.3964 24.2188 22.3992L24.2881 22.479H24.2342L24.1698 22.3997H24.1489V22.479H24.1038V22.2671H24.2017ZM24.188 22.5516C24.2128 22.5516 24.2359 22.5472 24.2568 22.5379C24.2782 22.5285 24.297 22.5159 24.3129 22.4999C24.3289 22.4839 24.3415 22.4652 24.3509 22.4432C24.3597 22.4217 24.3646 22.3986 24.3646 22.3739C24.3646 22.3491 24.3597 22.326 24.3509 22.3045C24.3415 22.2831 24.3289 22.2638 24.3129 22.2478C24.297 22.2319 24.2782 22.2192 24.2568 22.2104C24.2359 22.2011 24.2128 22.1967 24.188 22.1967C24.1632 22.1967 24.1396 22.2011 24.1181 22.2104C24.0961 22.2192 24.0768 22.2319 24.0609 22.2478C24.0449 22.2638 24.0323 22.2831 24.0234 22.3045C24.0141 22.326 24.0097 22.3491 24.0097 22.3739C24.0097 22.3986 24.0141 22.4217 24.0234 22.4432C24.0323 22.4652 24.0449 22.4839 24.0609 22.4999C24.0768 22.5159 24.0961 22.5285 24.1181 22.5379C24.1396 22.5472 24.1632 22.5516 24.188 22.5516ZM24.188 22.1455C24.2205 22.1455 24.2502 22.1515 24.2782 22.1636C24.3069 22.1752 24.3311 22.1917 24.3525 22.2126C24.3734 22.233 24.39 22.2572 24.4021 22.2853C24.4142 22.3128 24.4202 22.3425 24.4202 22.3739C24.4202 22.4052 24.4142 22.435 24.4021 22.4625C24.39 22.49 24.3734 22.5142 24.3525 22.5346C24.3311 22.5555 24.3069 22.572 24.2782 22.5841C24.2502 22.5962 24.2205 22.6023 24.188 22.6023C24.155 22.6023 24.1247 22.5962 24.0961 22.5841C24.0675 22.572 24.0427 22.5555 24.0218 22.5346C24.0009 22.5142 23.9844 22.49 23.9723 22.4625C23.9602 22.435 23.9541 22.4052 23.9541 22.3739C23.9541 22.3425 23.9602 22.3128 23.9723 22.2853C23.9844 22.2572 24.0009 22.233 24.0218 22.2126C24.0427 22.1917 24.0675 22.1752 24.0961 22.1636C24.1247 22.1515 24.155 22.1455 24.188 22.1455Z" fill="#4B4B4B"/>
</g>
<defs>
<clipPath id="clip0_905_80">
<rect width="28" height="23" fill="white" transform="translate(0.200195)"/>
</clipPath>
</defs>
</svg>
