<svg width="14" height="14" viewBox="0 0 14 14" fill="none" xmlns="http://www.w3.org/2000/svg">
<path d="M5.66683 7.66671H1.00016C0.823352 7.66671 0.653782 7.73695 0.528758 7.86197C0.403734 7.98699 0.333496 8.15656 0.333496 8.33337V13C0.333496 13.1769 0.403734 13.3464 0.528758 13.4714C0.653782 13.5965 0.823352 13.6667 1.00016 13.6667H5.66683C5.84364 13.6667 6.01321 13.5965 6.13823 13.4714C6.26326 13.3464 6.3335 13.1769 6.3335 13V8.33337C6.3335 8.15656 6.26326 7.98699 6.13823 7.86197C6.01321 7.73695 5.84364 7.66671 5.66683 7.66671ZM5.00016 12.3334H1.66683V9.00004H5.00016V12.3334ZM13.0002 0.333374H8.3335C8.15668 0.333374 7.98712 0.403612 7.86209 0.528636C7.73707 0.65366 7.66683 0.82323 7.66683 1.00004V5.66671C7.66683 5.84352 7.73707 6.01309 7.86209 6.13811C7.98712 6.26314 8.15668 6.33337 8.3335 6.33337H13.0002C13.177 6.33337 13.3465 6.26314 13.4716 6.13811C13.5966 6.01309 13.6668 5.84352 13.6668 5.66671V1.00004C13.6668 0.82323 13.5966 0.65366 13.4716 0.528636C13.3465 0.403612 13.177 0.333374 13.0002 0.333374ZM12.3335 5.00004H9.00016V1.66671H12.3335V5.00004ZM13.0002 7.66671H8.3335C8.15668 7.66671 7.98712 7.73695 7.86209 7.86197C7.73707 7.98699 7.66683 8.15656 7.66683 8.33337V13C7.66683 13.1769 7.73707 13.3464 7.86209 13.4714C7.98712 13.5965 8.15668 13.6667 8.3335 13.6667H13.0002C13.177 13.6667 13.3465 13.5965 13.4716 13.4714C13.5966 13.3464 13.6668 13.1769 13.6668 13V8.33337C13.6668 8.15656 13.5966 7.98699 13.4716 7.86197C13.3465 7.73695 13.177 7.66671 13.0002 7.66671ZM12.3335 12.3334H9.00016V9.00004H12.3335V12.3334ZM5.66683 0.333374H1.00016C0.823352 0.333374 0.653782 0.403612 0.528758 0.528636C0.403734 0.65366 0.333496 0.82323 0.333496 1.00004V5.66671C0.333496 5.84352 0.403734 6.01309 0.528758 6.13811C0.653782 6.26314 0.823352 6.33337 1.00016 6.33337H5.66683C5.84364 6.33337 6.01321 6.26314 6.13823 6.13811C6.26326 6.01309 6.3335 5.84352 6.3335 5.66671V1.00004C6.3335 0.82323 6.26326 0.65366 6.13823 0.528636C6.01321 0.403612 5.84364 0.333374 5.66683 0.333374ZM5.00016 5.00004H1.66683V1.66671H5.00016V5.00004Z" fill="url(#paint0_linear_821_3296)"/>
<defs>
<linearGradient id="paint0_linear_821_3296" x1="7.00016" y1="0.333374" x2="7.00016" y2="13.6667" gradientUnits="userSpaceOnUse">
<stop stop-color="#71EA87"/>
<stop offset="1" stop-color="#24AA2D"/>
</linearGradient>
</defs>
</svg>
