<svg width="65" height="16" viewBox="0 0 65 16" fill="none" xmlns="http://www.w3.org/2000/svg">
<g clip-path="url(#clip0_905_126)">
<path fill-rule="evenodd" clip-rule="evenodd" d="M6.35701 0.000488281C5.16966 0.000488281 3.76191 1.1471 2.60072 3.07477C1.39046 5.07118 0.668457 7.54269 0.668457 9.68898C0.668457 12.831 2.42388 15.9997 6.35734 15.9997C10.2861 15.9997 12.0462 12.831 12.0462 9.68898C12.0462 7.54269 11.3246 5.07118 10.1201 3.07477C8.94807 1.1471 7.54047 0.000488281 6.35701 0.000488281ZM37.0756 4.71461H41.0578V15.1429H45.3244V4.71461H49.305V0.85714H37.0756V4.71412V4.71461ZM58.4073 4.71461H64.665V0.85714H58.4073C52.6582 0.85714 49.5879 3.72832 49.5879 7.99951C49.5879 12.2707 52.6582 15.1429 58.4073 15.1429H64.665V11.2855H58.4073C55.7465 11.2855 53.9976 10.3303 53.9976 8C53.9976 5.66971 55.7465 4.71461 58.4073 4.71461ZM28.3976 0.85714L26.1236 9.38367L23.8497 0.85714H16.3127V15.1429H20.5778V3.52326L23.6774 15.1429H28.5699L31.6711 3.51624V15.1429H35.9378V0.85714H28.3976Z" fill="#E30613"/>
</g>
<defs>
<clipPath id="clip0_905_126">
<rect width="64" height="16" fill="white" transform="translate(0.666504)"/>
</clipPath>
</defs>
</svg>
