<svg width="18" height="18" viewBox="0 0 18 18" fill="none" xmlns="http://www.w3.org/2000/svg">
<path d="M12.3337 7.55829L8.167 5.14996C7.91376 5.00375 7.62651 4.92674 7.33409 4.92667C7.04167 4.92659 6.75438 5.00345 6.50107 5.14953C6.24775 5.29561 6.03733 5.50576 5.89093 5.75889C5.74452 6.01202 5.6673 6.29921 5.667 6.59163V11.4083C5.6673 11.7006 5.74445 11.9876 5.89071 12.2407C6.03698 12.4937 6.24721 12.7038 6.50033 12.85C6.75369 12.9962 7.0411 13.0733 7.33366 13.0733C7.62622 13.0733 7.91363 12.9962 8.167 12.85L12.3337 10.4416C12.5862 10.2951 12.7959 10.0848 12.9416 9.83181C13.0873 9.5788 13.164 9.29194 13.164 8.99996C13.164 8.70798 13.0873 8.42112 12.9416 8.1681C12.7959 7.91509 12.5862 7.7048 12.3337 7.55829ZM11.5003 8.99996L7.33366 11.4083V6.59163L11.5003 8.99996ZM9.00033 0.666626C7.35215 0.666626 5.74099 1.15537 4.37058 2.07105C3.00017 2.98672 1.93206 4.28821 1.30133 5.81093C0.670603 7.33365 0.505575 9.0092 0.827119 10.6257C1.14866 12.2422 1.94234 13.7271 3.10777 14.8925C4.27321 16.058 5.75807 16.8516 7.37458 17.1732C8.99109 17.4947 10.6666 17.3297 12.1894 16.699C13.7121 16.0682 15.0136 15.0001 15.9292 13.6297C16.8449 12.2593 17.3337 10.6481 17.3337 8.99996C17.3337 7.90561 17.1181 6.82198 16.6993 5.81093C16.2805 4.79988 15.6667 3.88122 14.8929 3.1074C14.1191 2.33358 13.2004 1.71975 12.1894 1.30096C11.1783 0.882174 10.0947 0.666626 9.00033 0.666626ZM9.00033 15.6666C7.68179 15.6666 6.39286 15.2756 5.29653 14.5431C4.2002 13.8105 3.34572 12.7694 2.84113 11.5512C2.33655 10.333 2.20453 8.99256 2.46176 7.69936C2.719 6.40615 3.35393 5.21826 4.28628 4.28591C5.21863 3.35356 6.40652 2.71863 7.69973 2.46139C8.99293 2.20416 10.3334 2.33618 11.5516 2.84076C12.7697 3.34535 13.8109 4.19983 14.5435 5.29616C15.276 6.39249 15.667 7.68142 15.667 8.99996C15.667 10.7681 14.9646 12.4638 13.7144 13.714C12.4641 14.9642 10.7684 15.6666 9.00033 15.6666Z" fill="white"/>
</svg>
