<svg width="18" height="18" viewBox="0 0 18 18" fill="none" xmlns="http://www.w3.org/2000/svg">
<path d="M16.5003 8.16663C16.2793 8.16663 16.0674 8.25442 15.9111 8.4107C15.7548 8.56698 15.667 8.77894 15.667 8.99996C15.6769 10.5608 15.1422 12.0763 14.155 13.2853C13.1678 14.4944 11.7899 15.3214 10.2586 15.6238C8.72732 15.9262 7.13848 15.6852 5.76575 14.9423C4.39302 14.1993 3.32233 13.0009 2.7381 11.5535C2.15386 10.1061 2.09265 8.50022 2.56501 7.01252C3.03737 5.52482 4.01372 4.2484 5.32591 3.40311C6.6381 2.55781 8.20399 2.19655 9.75388 2.38155C11.3038 2.56655 12.7406 3.28622 13.817 4.41663H11.817C11.596 4.41663 11.384 4.50442 11.2277 4.6607C11.0715 4.81698 10.9837 5.02894 10.9837 5.24996C10.9837 5.47097 11.0715 5.68293 11.2277 5.83921C11.384 5.99549 11.596 6.08329 11.817 6.08329H15.592C15.813 6.08329 16.025 5.99549 16.1813 5.83921C16.3375 5.68293 16.4253 5.47097 16.4253 5.24996V1.49996C16.4253 1.27895 16.3375 1.06698 16.1813 0.910703C16.025 0.754423 15.813 0.666626 15.592 0.666626C15.371 0.666626 15.159 0.754423 15.0027 0.910703C14.8465 1.06698 14.7587 1.27895 14.7587 1.49996V2.97496C13.3709 1.64834 11.5676 0.841586 9.65368 0.691067C7.73973 0.540547 5.83252 1.0555 4.25443 2.14887C2.67634 3.24224 1.52417 4.84696 0.992685 6.69178C0.461201 8.5366 0.583003 10.5084 1.3375 12.2737C2.092 14.0391 3.43291 15.4898 5.13358 16.3807C6.83424 17.2715 8.79033 17.5478 10.6712 17.1629C12.5521 16.7779 14.2423 15.7554 15.4563 14.268C16.6702 12.7807 17.3334 10.9198 17.3337 8.99996C17.3337 8.77894 17.2459 8.56698 17.0896 8.4107C16.9333 8.25442 16.7213 8.16663 16.5003 8.16663Z" fill="white"/>
</svg>
