<svg width="14" height="14" viewBox="0 0 14 14" fill="none" xmlns="http://www.w3.org/2000/svg">
<path d="M13.2135 5.36671L11.9535 4.94671L12.5468 3.76004C12.607 3.63583 12.6271 3.49602 12.6044 3.35989C12.5817 3.22376 12.5173 3.09803 12.4202 3.00004L11.0002 1.58004C10.9017 1.48143 10.7747 1.41618 10.6372 1.39346C10.4997 1.37074 10.3585 1.39169 10.2335 1.45338L9.04683 2.04671L8.62683 0.78671C8.58247 0.655371 8.49828 0.541127 8.38596 0.459875C8.27364 0.378623 8.13879 0.334406 8.00016 0.333376H6.00016C5.8604 0.333015 5.72406 0.376589 5.61041 0.457938C5.49676 0.539286 5.41156 0.654296 5.36683 0.78671L4.94683 2.04671L3.76016 1.45338C3.63596 1.39323 3.49614 1.37311 3.36001 1.3958C3.22389 1.41849 3.09815 1.48286 3.00016 1.58004L1.58016 3.00004C1.48156 3.09855 1.4163 3.22549 1.39358 3.36301C1.37086 3.50053 1.39182 3.64172 1.4535 3.76671L2.04683 4.95338L0.786832 5.37338C0.655493 5.41773 0.541249 5.50193 0.459997 5.61425C0.378745 5.72657 0.334528 5.86142 0.333498 6.00004V8.00004C0.333138 8.1398 0.376711 8.27615 0.45806 8.38979C0.539408 8.50344 0.654418 8.58865 0.786832 8.63338L2.04683 9.05338L1.4535 10.24C1.39335 10.3643 1.37323 10.5041 1.39592 10.6402C1.41861 10.7763 1.48299 10.9021 1.58016 11L3.00016 12.42C3.09867 12.5187 3.22562 12.5839 3.36314 12.6066C3.50066 12.6293 3.64184 12.6084 3.76683 12.5467L4.9535 11.9534L5.3735 13.2134C5.41822 13.3458 5.50343 13.4608 5.61708 13.5421C5.73073 13.6235 5.86707 13.6671 6.00683 13.6667H8.00683C8.14659 13.6671 8.28293 13.6235 8.39658 13.5421C8.51023 13.4608 8.59544 13.3458 8.64016 13.2134L9.06016 11.9534L10.2468 12.5467C10.3702 12.6053 10.5087 12.6246 10.6434 12.602C10.7782 12.5793 10.9027 12.5158 11.0002 12.42L12.4202 11C12.5188 10.9015 12.584 10.7746 12.6067 10.6371C12.6295 10.4996 12.6085 10.3584 12.5468 10.2334L11.9535 9.04671L13.2135 8.62671C13.3448 8.58235 13.4591 8.49816 13.5403 8.38584C13.6216 8.27352 13.6658 8.13866 13.6668 8.00004V6.00004C13.6672 5.86028 13.6236 5.72394 13.5423 5.61029C13.4609 5.49664 13.3459 5.41143 13.2135 5.36671ZM12.3335 7.52004L11.5335 7.78671C11.3495 7.84638 11.1808 7.94536 11.0389 8.07678C10.897 8.20819 10.7854 8.36891 10.7118 8.54776C10.6382 8.72662 10.6045 8.91934 10.6128 9.11256C10.6212 9.30578 10.6714 9.49487 10.7602 9.66671L11.1402 10.4267L10.4068 11.16L9.66683 10.76C9.49587 10.6749 9.3086 10.6274 9.11771 10.6209C8.92681 10.6144 8.73674 10.649 8.56038 10.7223C8.38401 10.7956 8.22545 10.906 8.09544 11.0459C7.96544 11.1859 7.86701 11.3521 7.80683 11.5334L7.54016 12.3334H6.48016L6.2135 11.5334C6.15383 11.3494 6.05485 11.1806 5.92343 11.0387C5.79201 10.8969 5.6313 10.7853 5.45244 10.7117C5.27359 10.6381 5.08087 10.6043 4.88765 10.6127C4.69443 10.621 4.50534 10.6713 4.3335 10.76L3.5735 11.14L2.84016 10.4067L3.24016 9.66671C3.32889 9.49487 3.37918 9.30578 3.38753 9.11256C3.39588 8.91934 3.3621 8.72662 3.28852 8.54776C3.21495 8.36891 3.10335 8.20819 2.96146 8.07678C2.81957 7.94536 2.65079 7.84638 2.46683 7.78671L1.66683 7.52004V6.48004L2.46683 6.21338C2.65079 6.1537 2.81957 6.05473 2.96146 5.92331C3.10335 5.79189 3.21495 5.63118 3.28852 5.45232C3.3621 5.27347 3.39588 5.08074 3.38753 4.88753C3.37918 4.69431 3.32889 4.50522 3.24016 4.33338L2.86016 3.59338L3.5935 2.86004L4.3335 3.24004C4.50534 3.32877 4.69443 3.37906 4.88765 3.38741C5.08087 3.39576 5.27359 3.36197 5.45244 3.2884C5.6313 3.21483 5.79201 3.10323 5.92343 2.96134C6.05485 2.81945 6.15383 2.65067 6.2135 2.46671L6.48016 1.66671H7.52016L7.78683 2.46671C7.8465 2.65067 7.94548 2.81945 8.0769 2.96134C8.20832 3.10323 8.36903 3.21483 8.54788 3.2884C8.72674 3.36197 8.91946 3.39576 9.11268 3.38741C9.3059 3.37906 9.49499 3.32877 9.66683 3.24004L10.4268 2.86004L11.1602 3.59338L10.7602 4.33338C10.675 4.50434 10.6275 4.69161 10.621 4.8825C10.6145 5.0734 10.6491 5.26346 10.7224 5.43983C10.7958 5.6162 10.9061 5.77475 11.0461 5.90476C11.186 6.03477 11.3522 6.1332 11.5335 6.19338L12.3335 6.46004V7.52004ZM7.00016 4.33338C6.47275 4.33338 5.95718 4.48977 5.51864 4.78279C5.08011 5.07581 4.73832 5.49228 4.53649 5.97955C4.33465 6.46682 4.28184 7.003 4.38474 7.52028C4.48763 8.03757 4.74161 8.51272 5.11455 8.88566C5.48749 9.2586 5.96264 9.51258 6.47992 9.61547C6.99721 9.71836 7.53338 9.66556 8.02065 9.46372C8.50792 9.26189 8.9244 8.92009 9.21742 8.48156C9.51043 8.04303 9.66683 7.52746 9.66683 7.00004C9.66683 6.2928 9.38588 5.61452 8.88578 5.11442C8.38568 4.61433 7.70741 4.33338 7.00016 4.33338ZM7.00016 8.33337C6.73646 8.33337 6.47867 8.25518 6.2594 8.10867C6.04014 7.96216 5.86924 7.75392 5.76832 7.51029C5.66741 7.26665 5.641 6.99856 5.69245 6.73992C5.7439 6.48128 5.87089 6.2437 6.05736 6.05723C6.24383 5.87076 6.4814 5.74378 6.74004 5.69233C6.99869 5.64088 7.26677 5.66729 7.51041 5.7682C7.75404 5.86912 7.96228 6.04002 8.10879 6.25928C8.2553 6.47855 8.3335 6.73633 8.3335 7.00004C8.3335 7.35366 8.19302 7.6928 7.94297 7.94285C7.69292 8.1929 7.35379 8.33337 7.00016 8.33337Z" fill="url(#paint0_linear_821_3293)"/>
<defs>
<linearGradient id="paint0_linear_821_3293" x1="7.00016" y1="0.333374" x2="7.00016" y2="13.6667" gradientUnits="userSpaceOnUse">
<stop stop-color="#71EA87"/>
<stop offset="1" stop-color="#24AA2D"/>
</linearGradient>
</defs>
</svg>
