<svg width="62" height="62" viewBox="0 0 62 62" fill="none" xmlns="http://www.w3.org/2000/svg">
<path d="M14.3332 33.7778H3.22211C2.4854 33.7778 1.77886 34.0704 1.25793 34.5914C0.736994 35.1123 0.444336 35.8188 0.444336 36.5555V58.7778C0.444336 59.5145 0.736994 60.221 1.25793 60.7419C1.77886 61.2629 2.4854 61.5555 3.22211 61.5555H14.3332C15.0699 61.5555 15.7765 61.2629 16.2974 60.7419C16.8183 60.221 17.111 59.5145 17.111 58.7778V36.5555C17.111 35.8188 16.8183 35.1123 16.2974 34.5914C15.7765 34.0704 15.0699 33.7778 14.3332 33.7778ZM11.5554 56H5.99989V39.3333H11.5554V56ZM58.7777 22.6666H47.6666C46.9298 22.6666 46.2233 22.9593 45.7024 23.4802C45.1814 24.0012 44.8888 24.7077 44.8888 25.4444V58.7778C44.8888 59.5145 45.1814 60.221 45.7024 60.7419C46.2233 61.2629 46.9298 61.5555 47.6666 61.5555H58.7777C59.5144 61.5555 60.2209 61.2629 60.7419 60.7419C61.2628 60.221 61.5554 59.5145 61.5554 58.7778V25.4444C61.5554 24.7077 61.2628 24.0012 60.7419 23.4802C60.2209 22.9593 59.5144 22.6666 58.7777 22.6666ZM55.9999 56H50.4443V28.2222H55.9999V56ZM36.5554 0.444427H25.4443C24.7076 0.444427 24.0011 0.737085 23.4802 1.25802C22.9592 1.77895 22.6666 2.48549 22.6666 3.22221V58.7778C22.6666 59.5145 22.9592 60.221 23.4802 60.7419C24.0011 61.2629 24.7076 61.5555 25.4443 61.5555H36.5554C37.2922 61.5555 37.9987 61.2629 38.5196 60.7419C39.0406 60.221 39.3332 59.5145 39.3332 58.7778V3.22221C39.3332 2.48549 39.0406 1.77895 38.5196 1.25802C37.9987 0.737085 37.2922 0.444427 36.5554 0.444427ZM33.7777 56H28.2221V5.99998H33.7777V56Z" fill="white"/>
</svg>
