<svg width="14" height="14" viewBox="0 0 14 14" fill="none" xmlns="http://www.w3.org/2000/svg">
<path d="M13.6665 5.44664C13.6244 5.3247 13.5478 5.21759 13.446 5.13831C13.3443 5.05903 13.2217 5.01097 13.0932 4.99997L9.29982 4.44664L7.59982 0.999975C7.54523 0.887261 7.46 0.792203 7.35388 0.72569C7.24777 0.659178 7.12506 0.623901 6.99982 0.623901C6.87458 0.623901 6.75188 0.659178 6.64576 0.72569C6.53965 0.792203 6.45441 0.887261 6.39982 0.999975L4.69982 4.43997L0.906489 4.99997C0.783104 5.01751 0.667105 5.06928 0.571656 5.14941C0.476206 5.22954 0.405129 5.33482 0.366489 5.45331C0.331119 5.56909 0.327945 5.69232 0.357307 5.80977C0.38667 5.92722 0.447461 6.03446 0.533156 6.11997L3.28649 8.78664L2.61982 12.5733C2.59602 12.6983 2.60848 12.8275 2.65574 12.9456C2.70299 13.0637 2.78306 13.1659 2.88649 13.24C2.9873 13.312 3.1062 13.3546 3.22985 13.3628C3.3535 13.3711 3.477 13.3447 3.58649 13.2866L6.99982 11.5066L10.3998 13.2933C10.4934 13.3461 10.5991 13.3737 10.7065 13.3733C10.8477 13.3738 10.9854 13.3295 11.0998 13.2466C11.2033 13.1725 11.2833 13.0704 11.3306 12.9523C11.3778 12.8341 11.3903 12.705 11.3665 12.58L10.6998 8.79331L13.4532 6.12664C13.5494 6.04509 13.6206 5.93791 13.6583 5.81754C13.6961 5.69717 13.6989 5.56856 13.6665 5.44664ZM9.56649 8.11331C9.48831 8.18893 9.42981 8.28253 9.39611 8.38596C9.36241 8.48938 9.35453 8.59947 9.37316 8.70664L9.85316 11.5L7.34649 10.1666C7.25003 10.1153 7.14243 10.0884 7.03316 10.0884C6.92388 10.0884 6.81628 10.1153 6.71982 10.1666L4.21316 11.5L4.69316 8.70664C4.71178 8.59947 4.7039 8.48938 4.6702 8.38596C4.6365 8.28253 4.57801 8.18893 4.49982 8.11331L2.49982 6.11331L5.30649 5.70664C5.41449 5.69162 5.51715 5.65033 5.60549 5.58641C5.69382 5.52248 5.76513 5.43787 5.81316 5.33997L6.99982 2.79997L8.25316 5.34664C8.30118 5.44453 8.37249 5.52915 8.46082 5.59308C8.54916 5.657 8.65182 5.69829 8.75982 5.71331L11.5665 6.11997L9.56649 8.11331Z" fill="url(#paint0_linear_817_2775)"/>
<defs>
<linearGradient id="paint0_linear_817_2775" x1="7.01314" y1="0.623901" x2="7.01314" y2="13.3733" gradientUnits="userSpaceOnUse">
<stop stop-color="#71EA87"/>
<stop offset="1" stop-color="#24AA2D"/>
</linearGradient>
</defs>
</svg>
