<svg width="43" height="16" viewBox="0 0 43 16" fill="none" xmlns="http://www.w3.org/2000/svg">
<g clip-path="url(#clip0_905_120)">
<path d="M0.925293 5.86845V8.01405L6.91722 7.37737V5.05508L0.925293 5.86845ZM2.83742 8.14457V15.4969H5.03112V7.92799L2.83742 8.14457ZM7.72646 4.94525V15.4969H10.038V4.63131L7.72646 4.94525ZM10.4686 4.57279V7.00011L13.8065 6.64536V4.11977L10.4686 4.57279ZM10.4686 8.80674V11.2783L12.6597 11.1629V8.62456L10.4686 8.80674ZM10.4686 13.0598V15.4969H13.8065V12.9625L10.4686 13.0598ZM22.4386 2.94411V15.4969H25.4689V2.53268L22.4386 2.94411ZM26.0348 2.45577V5.34319L30.4508 4.87417V1.85611L26.0348 2.45577ZM26.0348 7.51474V10.4557L28.9292 10.303V7.27531L26.0348 7.51474ZM26.0348 12.6053V15.4969H30.4508V12.4764L26.0348 12.6053ZM14.6897 3.99965V15.4969H17.3228V3.64205L14.6897 3.99965ZM17.8143 12.8457V15.4968H21.6364V12.7343L17.8143 12.8457ZM40.3513 1.71417C39.3936 0.840109 37.9894 0.481594 36.4535 0.694737V3.89725C37.0755 3.86388 37.5795 4.08685 37.804 4.53577C38.1586 5.24354 37.7928 6.30548 36.9298 7.28936C35.5979 8.80765 32.0561 11.9153 32.0561 11.9153L37.1405 11.7538C40.2472 8.82194 41.3629 7.04228 41.5631 4.82114C41.6683 3.64605 41.2267 2.51382 40.3513 1.71417ZM41.7422 15.4969V12.1459L31.4294 12.4461L41.7422 15.4969ZM31.4294 12.4459L31.4304 15.4968H41.7422L31.4294 12.4459ZM35.8607 0.766623C32.8647 1.38297 31.3935 3.51211 31.5633 6.98628L34.7577 6.71245C34.6121 4.74971 35.2336 4.28411 35.8622 4.02811L35.8607 0.766623Z" fill="white"/>
</g>
<defs>
<clipPath id="clip0_905_120">
<rect width="42" height="16" fill="white" transform="translate(0.333496)"/>
</clipPath>
</defs>
</svg>
