<svg width="12" height="14" viewBox="0 0 12 14" fill="none" xmlns="http://www.w3.org/2000/svg">
<path d="M10.1999 4.72663L10.8065 4.12663C10.9321 4.00109 11.0026 3.83083 11.0026 3.65329C11.0026 3.47576 10.9321 3.3055 10.8065 3.17996C10.681 3.05442 10.5107 2.9839 10.3332 2.9839C10.1557 2.9839 9.98539 3.05442 9.85986 3.17996L9.25986 3.78663C8.32556 3.06386 7.17775 2.67172 5.99652 2.67172C4.81529 2.67172 3.66749 3.06386 2.73319 3.78663L2.12652 3.17329C2.0001 3.04776 1.82899 2.97758 1.65083 2.97821C1.47267 2.97883 1.30206 3.05021 1.17652 3.17663C1.05099 3.30305 0.980812 3.47416 0.981437 3.65232C0.982062 3.83048 1.05343 4.00109 1.17985 4.12663L1.79319 4.73329C1.06187 5.66499 0.665048 6.81552 0.666521 7.99996C0.664344 8.85024 0.865497 9.68872 1.2532 10.4455C1.64091 11.2022 2.20393 11.8553 2.89532 12.3502C3.5867 12.8452 4.3864 13.1677 5.22773 13.2908C6.06906 13.4139 6.92762 13.334 7.73182 13.0579C8.53602 12.7818 9.26255 12.3174 9.8508 11.7034C10.4391 11.0894 10.872 10.3437 11.1135 9.52848C11.355 8.71321 11.3981 7.85202 11.2392 7.01672C11.0802 6.18142 10.7239 5.39623 10.1999 4.72663ZM5.99986 12C5.20873 12 4.43537 11.7654 3.77757 11.3258C3.11978 10.8863 2.60709 10.2616 2.30434 9.53069C2.00159 8.79979 1.92237 7.99552 2.07671 7.2196C2.23105 6.44367 2.61202 5.73094 3.17143 5.17153C3.73084 4.61212 4.44357 4.23116 5.21949 4.07682C5.99542 3.92248 6.79968 4.00169 7.53059 4.30444C8.26149 4.60719 8.88621 5.11988 9.32573 5.77768C9.76526 6.43547 9.99986 7.20883 9.99986 7.99996C9.99986 9.06083 9.57843 10.0782 8.82828 10.8284C8.07814 11.5785 7.06072 12 5.99986 12ZM4.66652 1.99996H7.33319C7.51 1.99996 7.67957 1.92972 7.80459 1.8047C7.92962 1.67967 7.99986 1.5101 7.99986 1.33329C7.99986 1.15648 7.92962 0.986912 7.80459 0.861888C7.67957 0.736864 7.51 0.666626 7.33319 0.666626H4.66652C4.48971 0.666626 4.32014 0.736864 4.19512 0.861888C4.07009 0.986912 3.99985 1.15648 3.99985 1.33329C3.99985 1.5101 4.07009 1.67967 4.19512 1.8047C4.32014 1.92972 4.48971 1.99996 4.66652 1.99996ZM6.66652 5.99996C6.66652 5.82315 6.59628 5.65358 6.47126 5.52855C6.34624 5.40353 6.17667 5.33329 5.99986 5.33329C5.82304 5.33329 5.65347 5.40353 5.52845 5.52855C5.40343 5.65358 5.33319 5.82315 5.33319 5.99996V7.25996C5.18223 7.39498 5.07584 7.57265 5.02807 7.76946C4.9803 7.96627 4.99342 8.17294 5.06568 8.36214C5.13795 8.55133 5.26595 8.71412 5.43277 8.82897C5.59958 8.94382 5.79733 9.00532 5.99986 9.00532C6.20238 9.00532 6.40013 8.94382 6.56694 8.82897C6.73376 8.71412 6.86176 8.55133 6.93403 8.36214C7.00629 8.17294 7.01941 7.96627 6.97164 7.76946C6.92387 7.57265 6.81748 7.39498 6.66652 7.25996V5.99996Z" fill="url(#paint0_linear_817_2767)"/>
<defs>
<linearGradient id="paint0_linear_817_2767" x1="5.99984" y1="0.666626" x2="5.99984" y2="13.3469" gradientUnits="userSpaceOnUse">
<stop stop-color="#71EA87"/>
<stop offset="1" stop-color="#24AA2D"/>
</linearGradient>
</defs>
</svg>
