<svg width="46" height="46" viewBox="0 0 46 46" fill="none" xmlns="http://www.w3.org/2000/svg">
<path d="M30.1105 24.3608C31.9895 22.8824 33.3611 20.8551 34.0343 18.5608C34.7076 16.2666 34.649 13.8196 33.8667 11.5603C33.0845 9.30091 31.6175 7.34154 29.6698 5.95476C27.7221 4.56798 25.3906 3.82275 22.9996 3.82275C20.6087 3.82275 18.2772 4.56798 16.3295 5.95476C14.3818 7.34154 12.9148 9.30091 12.1325 11.5603C11.3503 13.8196 11.2917 16.2666 11.9649 18.5608C12.6381 20.8551 14.0097 22.8824 15.8888 24.3608C12.6689 25.6508 9.85951 27.7904 7.76001 30.5515C5.6605 33.3125 4.34962 36.5916 3.96713 40.0391C3.93944 40.2908 3.9616 40.5455 4.03234 40.7886C4.10308 41.0318 4.22102 41.2586 4.37942 41.4562C4.69933 41.8551 5.16463 42.1107 5.67296 42.1666C6.18129 42.2225 6.69102 42.0742 7.09 41.7543C7.48898 41.4344 7.74454 40.9691 7.80046 40.4608C8.22133 36.7141 10.0079 33.2538 12.8187 30.741C15.6296 28.2282 19.2677 26.8391 23.038 26.8391C26.8082 26.8391 30.4464 28.2282 33.2572 30.741C36.0681 33.2538 37.8546 36.7141 38.2755 40.4608C38.3276 40.9318 38.5523 41.3667 38.9062 41.6817C39.2602 41.9968 39.7183 42.1695 40.1921 42.1666H40.403C40.9054 42.1088 41.3646 41.8548 41.6805 41.4599C41.9965 41.0649 42.1435 40.5611 42.0896 40.0583C41.7053 36.601 40.3874 33.3135 38.2771 30.5482C36.1668 27.7828 33.3437 25.644 30.1105 24.3608ZM22.9996 23C21.4833 23 20.001 22.5503 18.7403 21.7079C17.4795 20.8655 16.4968 19.6681 15.9166 18.2672C15.3363 16.8663 15.1845 15.3248 15.4803 13.8376C15.7761 12.3504 16.5063 10.9843 17.5785 9.91214C18.6507 8.83993 20.0168 8.10975 21.5039 7.81393C22.9911 7.51811 24.5326 7.66994 25.9335 8.25021C27.3344 8.83048 28.5318 9.81314 29.3742 11.0739C30.2167 12.3347 30.6663 13.817 30.6663 15.3333C30.6663 17.3666 29.8586 19.3167 28.4208 20.7544C26.983 22.1922 25.033 23 22.9996 23Z" fill="#828282"/>
</svg>
