<svg width="62" height="56" viewBox="0 0 62 56" fill="none" xmlns="http://www.w3.org/2000/svg">
<path d="M61.4561 33.0629C61.4451 32.8995 61.4189 32.7375 61.3778 32.579L54.9759 15.5315C56.1409 14.7779 57.0991 13.7449 57.7631 12.5266C58.4271 11.3082 58.7758 9.94311 58.7777 8.55555C58.7777 7.81884 58.485 7.1123 57.9641 6.59137C57.4431 6.07044 56.7366 5.77778 55.9999 5.77778C55.2632 5.77778 54.5566 6.07044 54.0357 6.59137C53.5148 7.1123 53.2221 7.81884 53.2221 8.55555C53.2219 9.17457 53.015 9.77579 52.6342 10.2639C52.2534 10.7519 51.7206 11.0988 51.1202 11.2496C50.5199 11.4004 49.8863 11.3464 49.3201 11.0962C48.7539 10.846 48.2875 10.4139 47.9948 9.8685C47.282 8.60326 46.2397 7.55478 44.9787 6.83449C43.7177 6.11421 42.2851 5.74903 40.8332 5.77778H33.7777V3C33.7777 2.26329 33.485 1.55675 32.9641 1.03581C32.4431 0.514879 31.7366 0.222221 30.9999 0.222221C30.2632 0.222221 29.5566 0.514879 29.0357 1.03581C28.5148 1.55675 28.2221 2.26329 28.2221 3V5.77778H21.1666C19.7146 5.74903 18.2821 6.11421 17.0211 6.83449C15.7601 7.55478 14.7178 8.60326 14.005 9.8685C13.7123 10.4139 13.2459 10.846 12.6797 11.0962C12.1135 11.3464 11.4799 11.4004 10.8795 11.2496C10.2792 11.0988 9.74635 10.7519 9.36557 10.2639C8.9848 9.77579 8.77789 9.17457 8.77767 8.55555C8.77767 7.81884 8.48501 7.1123 7.96408 6.59137C7.44314 6.07044 6.7366 5.77778 5.99989 5.77778C5.26318 5.77778 4.55664 6.07044 4.03571 6.59137C3.51477 7.1123 3.22211 7.81884 3.22211 8.55555C3.22393 9.94311 3.57271 11.3082 4.2367 12.5266C4.9007 13.7449 5.85884 14.7779 7.02392 15.5315L0.622114 32.579C0.581019 32.7375 0.554804 32.8995 0.543808 33.0629C0.495026 33.2235 0.461717 33.3885 0.444336 33.5556C0.444336 33.5813 0.451808 33.6051 0.451975 33.6308C0.452808 33.6674 0.460308 33.7012 0.462808 33.7376C0.506058 36.6511 1.69377 39.4305 3.76934 41.4755C5.84491 43.5205 8.64169 44.6668 11.5554 44.6668C14.4692 44.6668 17.266 43.5205 19.3416 41.4755C21.4171 39.4305 22.6048 36.6511 22.6481 33.7376C22.6504 33.7012 22.6581 33.6674 22.6589 33.6308C22.6591 33.6051 22.6666 33.5813 22.6666 33.5556C22.6492 33.3885 22.6159 33.2235 22.5672 33.0629C22.5562 32.8995 22.53 32.7375 22.4889 32.579L16.0795 15.5117C17.2566 14.7605 18.2253 13.7246 18.8959 12.4998C19.1383 12.1228 19.4759 11.8164 19.8746 11.6116C20.2733 11.4068 20.7189 11.3108 21.1666 11.3333H28.2221V50.2222H19.8888C19.1521 50.2222 18.4455 50.5149 17.9246 51.0358C17.4037 51.5567 17.111 52.2633 17.111 53C17.111 53.7367 17.4037 54.4432 17.9246 54.9642C18.4455 55.4851 19.1521 55.7778 19.8888 55.7778H42.111C42.8477 55.7778 43.5543 55.4851 44.0752 54.9642C44.5961 54.4432 44.8888 53.7367 44.8888 53C44.8888 52.2633 44.5961 51.5567 44.0752 51.0358C43.5543 50.5149 42.8477 50.2222 42.111 50.2222H33.7777V11.3333H40.8332C41.2808 11.3108 41.7265 11.4068 42.1251 11.6116C42.5238 11.8164 42.8613 12.1228 43.1037 12.4998C43.7744 13.7246 44.7431 14.7605 45.9202 15.5117L39.511 32.579C39.4699 32.7375 39.4437 32.8995 39.4327 33.0629C39.3839 33.2235 39.3506 33.3885 39.3332 33.5556C39.3332 33.5813 39.3407 33.6051 39.3409 33.6308C39.3417 33.6674 39.3492 33.7012 39.3517 33.7376C39.3949 36.6511 40.5827 39.4305 42.6582 41.4755C44.7338 43.5205 47.5306 44.6668 50.4443 44.6668C53.3581 44.6668 56.1549 43.5205 58.2304 41.4755C60.306 39.4305 61.4937 36.6511 61.537 33.7376C61.5393 33.7012 61.547 33.6674 61.5478 33.6308C61.548 33.6051 61.5554 33.5813 61.5554 33.5556C61.5381 33.3885 61.5048 33.2235 61.4561 33.0629ZM11.5554 19.2654L15.8788 30.7778H7.23211L11.5554 19.2654ZM16.3406 36.3333C15.8504 37.1698 15.1521 37.8652 14.3136 38.3519C13.4751 38.8387 12.5249 39.1002 11.5554 39.1111C10.5805 39.1108 9.62289 38.8539 8.77866 38.3663C7.93444 37.8787 7.23337 37.1776 6.74586 36.3333H16.3406ZM50.4443 19.2654L54.7677 30.7778H46.121L50.4443 19.2654ZM50.4443 39.1111C49.4694 39.1108 48.5118 38.8539 47.6676 38.3663C46.8233 37.8787 46.1223 37.1776 45.6348 36.3333H55.2295C54.7393 37.1698 54.041 37.8652 53.2025 38.3519C52.364 38.8387 51.4138 39.1002 50.4443 39.1111Z" fill="white"/>
</svg>
