<svg width="12" height="14" viewBox="0 0 12 14" fill="none" xmlns="http://www.w3.org/2000/svg">
<path d="M11.3335 7.00004C11.3335 7.17685 11.2633 7.34642 11.1382 7.47144C11.0132 7.59647 10.8436 7.66671 10.6668 7.66671H5.60683L7.14016 9.19337C7.20265 9.25535 7.25224 9.32908 7.28609 9.41032C7.31994 9.49156 7.33736 9.5787 7.33736 9.66671C7.33736 9.75471 7.31994 9.84185 7.28609 9.92309C7.25224 10.0043 7.20265 10.0781 7.14016 10.14C7.07819 10.2025 7.00445 10.2521 6.92321 10.286C6.84197 10.3198 6.75484 10.3372 6.66683 10.3372C6.57882 10.3372 6.49168 10.3198 6.41044 10.286C6.32921 10.2521 6.25547 10.2025 6.1935 10.14L3.52683 7.47337C3.46614 7.40997 3.41856 7.33521 3.38683 7.25337C3.32015 7.09107 3.32015 6.90901 3.38683 6.74671C3.41856 6.66487 3.46614 6.59011 3.52683 6.52671L6.1935 3.86004C6.25565 3.79788 6.32945 3.74857 6.41066 3.71493C6.49188 3.68129 6.57892 3.66398 6.66683 3.66398C6.75474 3.66398 6.84178 3.68129 6.923 3.71493C7.00421 3.74857 7.078 3.79788 7.14016 3.86004C7.20232 3.9222 7.25163 3.99599 7.28527 4.07721C7.31891 4.15842 7.33622 4.24547 7.33622 4.33337C7.33622 4.42128 7.31891 4.50833 7.28527 4.58954C7.25163 4.67075 7.20232 4.74455 7.14016 4.80671L5.60683 6.33337H10.6668C10.8436 6.33337 11.0132 6.40361 11.1382 6.52864C11.2633 6.65366 11.3335 6.82323 11.3335 7.00004ZM2.66683 0.333374H9.3335C9.86393 0.333374 10.3726 0.544088 10.7477 0.91916C11.1228 1.29423 11.3335 1.80294 11.3335 2.33337V4.33337C11.3335 4.51018 11.2633 4.67975 11.1382 4.80478C11.0132 4.9298 10.8436 5.00004 10.6668 5.00004C10.49 5.00004 10.3204 4.9298 10.1954 4.80478C10.0704 4.67975 10.0002 4.51018 10.0002 4.33337V2.33337C10.0002 2.15656 9.92992 1.98699 9.8049 1.86197C9.67988 1.73695 9.51031 1.66671 9.3335 1.66671H2.66683C2.49002 1.66671 2.32045 1.73695 2.19542 1.86197C2.0704 1.98699 2.00016 2.15656 2.00016 2.33337V11.6667C2.00016 11.8435 2.0704 12.0131 2.19542 12.1381C2.32045 12.2631 2.49002 12.3334 2.66683 12.3334H9.3335C9.51031 12.3334 9.67988 12.2631 9.8049 12.1381C9.92992 12.0131 10.0002 11.8435 10.0002 11.6667V9.66671C10.0002 9.4899 10.0704 9.32033 10.1954 9.1953C10.3204 9.07028 10.49 9.00004 10.6668 9.00004C10.8436 9.00004 11.0132 9.07028 11.1382 9.1953C11.2633 9.32033 11.3335 9.4899 11.3335 9.66671V11.6667C11.3335 12.1971 11.1228 12.7058 10.7477 13.0809C10.3726 13.456 9.86393 13.6667 9.3335 13.6667H2.66683C2.1364 13.6667 1.62769 13.456 1.25261 13.0809C0.877542 12.7058 0.666829 12.1971 0.666829 11.6667V2.33337C0.666829 1.80294 0.877542 1.29423 1.25261 0.91916C1.62769 0.544088 2.1364 0.333374 2.66683 0.333374Z" fill="url(#paint0_linear_817_2784)"/>
<defs>
<linearGradient id="paint0_linear_817_2784" x1="6.00016" y1="0.333374" x2="6.00016" y2="13.6667" gradientUnits="userSpaceOnUse">
<stop stop-color="#71EA87"/>
<stop offset="1" stop-color="#24AA2D"/>
</linearGradient>
</defs>
</svg>
