<svg width="41" height="13" viewBox="0 0 41 13" fill="none" xmlns="http://www.w3.org/2000/svg">
<g clip-path="url(#clip0_905_58)">
<path d="M14.8413 12.1292L16.8419 0.875977H19.9678L18.0297 12.1292H14.8413Z" fill="white"/>
<path d="M14.8413 12.1292L17.4045 0.875977H19.9678L18.0297 12.1292H14.8413Z" fill="white"/>
<path d="M29.344 1.00014C28.7189 0.750071 27.7186 0.5 26.4682 0.5C23.3423 0.5 21.0917 2.06294 21.0917 4.31358C21.0917 6.00156 22.6546 6.87681 23.905 7.43947C25.1553 8.00213 25.5304 8.37724 25.5304 8.87738C25.5304 9.6276 24.5302 10.0027 23.6549 10.0027C22.4046 10.0027 21.7169 9.81515 20.6541 9.37753L20.2164 9.18997L19.7788 11.7532C20.529 12.0658 21.9044 12.3784 23.3423 12.3784C26.6558 12.3784 28.8439 10.8154 28.8439 8.43976C28.8439 7.12689 28.0312 6.1266 26.1556 5.31387C25.0303 4.75121 24.3426 4.43862 24.3426 3.87596C24.3426 3.37582 24.9053 2.87568 26.1556 2.87568C27.2184 2.87568 27.9686 3.06323 28.5313 3.3133L28.8439 3.43834L29.344 1.00014Z" fill="white"/>
<path d="M29.344 1.00014C28.7189 0.750071 27.7186 0.5 26.4682 0.5C23.3423 0.5 21.6543 2.06294 21.6543 4.31358C21.6543 6.00156 22.6546 6.87681 23.905 7.43947C25.1553 8.00213 25.5304 8.37724 25.5304 8.87738C25.5304 9.6276 24.5302 10.0027 23.6549 10.0027C22.4046 10.0027 21.7169 9.81515 20.6541 9.37753L20.2164 9.18997L19.7788 11.7532C20.529 12.0658 21.9044 12.3784 23.3423 12.3784C26.6558 12.3784 28.8439 10.8154 28.8439 8.43976C28.8439 7.12689 28.0312 6.1266 26.1556 5.31387C25.0303 4.75121 24.3426 4.43862 24.3426 3.87596C24.3426 3.37582 24.9053 2.87568 26.1556 2.87568C27.2184 2.87568 27.9686 3.06323 28.5313 3.3133L28.8439 3.43834L29.344 1.00014Z" fill="white"/>
<path d="M34.722 0.875977C33.9718 0.875977 33.4091 0.938495 33.0965 1.68871L28.4077 12.1292H31.7837L32.4089 10.2536H36.41L36.7851 12.1292H39.786L37.1602 0.875977H34.722ZM33.2841 8.37811C33.4717 7.81545 34.5345 5.06467 34.5345 5.06467C34.5345 5.06467 34.7845 4.37697 34.9721 3.93935L35.1596 5.00215C35.1596 5.00215 35.7848 7.81545 35.9098 8.44063H33.2841V8.37811Z" fill="white"/>
<path d="M35.4722 0.875977C34.722 0.875977 34.1594 0.938495 33.8468 1.68871L28.4077 12.1292H31.7837L32.4089 10.2536H36.41L36.7851 12.1292H39.786L37.1602 0.875977H35.4722ZM33.2841 8.37811C33.5342 7.75294 34.5345 5.06467 34.5345 5.06467C34.5345 5.06467 34.7845 4.37697 34.9721 3.93935L35.1596 5.00215C35.1596 5.00215 35.7848 7.81545 35.9098 8.44063H33.2841V8.37811Z" fill="white"/>
<path d="M9.08874 8.7527L8.77615 7.12724C8.21349 5.25171 6.40047 3.18862 4.3999 2.18834L7.2132 12.1912H10.5892L15.6531 0.937988H12.2771L9.08874 8.7527Z" fill="white"/>
<path d="M9.08874 8.7527L8.77615 7.12724C8.21349 5.25171 6.40047 3.18862 4.3999 2.18834L7.2132 12.1912H10.5892L15.6531 0.937988H12.9023L9.08874 8.7527Z" fill="white"/>
<path d="M0.399902 0.875977L0.962562 1.00101C4.9637 1.93878 7.71448 4.31446 8.77729 7.12776L7.65197 1.81374C7.46441 1.06353 6.90175 0.875977 6.21406 0.875977H0.399902Z" fill="white"/>
<path d="M0.399902 0.875977C4.40104 1.81374 7.71448 4.25194 8.77729 7.06524L7.71448 2.62648C7.52693 1.87626 6.90175 1.43864 6.21406 1.43864L0.399902 0.875977Z" fill="white"/>
<path d="M0.399902 0.875977C4.40104 1.81374 7.71448 4.25194 8.77729 7.06524L8.02707 4.62704C7.83952 3.87683 7.58945 3.12662 6.7142 2.81403L0.399902 0.875977Z" fill="white"/>
<path d="M12.2166 8.37776L10.091 6.25215L9.09068 8.62783L8.84061 7.06488C8.27795 5.18935 6.46493 3.12626 4.46436 2.12598L7.27766 12.1288H10.6536L12.2166 8.37776Z" fill="white"/>
<path d="M18.0336 12.1282L15.3454 9.37744L14.8452 12.1282H18.0336Z" fill="white"/>
<path d="M25.2218 8.25244C25.4718 8.50251 25.5969 8.69007 25.5344 8.94014C25.5344 9.69035 24.5341 10.0655 23.6588 10.0655C22.4085 10.0655 21.7208 9.87791 20.658 9.44028L20.2203 9.25273L19.7827 11.816C20.5329 12.1285 21.9083 12.4411 23.3462 12.4411C25.3468 12.4411 26.9723 11.8785 27.91 10.8782L25.2218 8.25244Z" fill="white"/>
<path d="M28.8472 12.1288H31.7855L32.4107 10.2533H36.4118L36.7869 12.1288H39.7878L38.725 7.565L34.9739 3.93896L35.1615 4.93925C35.1615 4.93925 35.7866 7.75255 35.9117 8.37773H33.2859C33.536 7.75255 34.5363 5.06429 34.5363 5.06429C34.5363 5.06429 34.7864 4.37659 34.9739 3.93896" fill="white"/>
</g>
<defs>
<clipPath id="clip0_905_58">
<rect width="40" height="12" fill="white" transform="translate(0.399902 0.5)"/>
</clipPath>
</defs>
</svg>
