<svg width="31" height="30" viewBox="0 0 31 30" fill="none" xmlns="http://www.w3.org/2000/svg">
<g clip-path="url(#clip0_905_43)">
<rect x="0.333496" width="30" height="30" rx="5" fill="url(#paint0_linear_905_43)"/>
<path d="M23.1356 17.2982C23.1356 17.2982 24.7526 18.8952 25.1526 19.6342C25.1604 19.6449 25.1664 19.6567 25.1706 19.6692C25.3336 19.9422 25.3736 20.1562 25.2936 20.3142C25.1586 20.5752 24.7016 20.7062 24.5466 20.7172H21.6886C21.4896 20.7172 21.0756 20.6652 20.5716 20.3172C20.1866 20.0482 19.8036 19.6052 19.4326 19.1722C18.8786 18.5292 18.3996 17.9712 17.9146 17.9712C17.8533 17.9711 17.7925 17.9812 17.7346 18.0012C17.3676 18.1172 16.9016 18.6402 16.9016 20.0332C16.9016 20.4692 16.5576 20.7172 16.3166 20.7172H15.0076C14.5616 20.7172 12.2396 20.5612 10.1806 18.3902C7.65759 15.7322 5.39159 10.4002 5.36959 10.3532C5.22859 10.0082 5.52459 9.8202 5.84459 9.8202H8.73059C9.11759 9.8202 9.24359 10.0542 9.33159 10.2642C9.43359 10.5052 9.81159 11.4692 10.4316 12.5522C11.4356 14.3142 12.0526 15.0312 12.5456 15.0312C12.6382 15.0315 12.7293 15.0073 12.8096 14.9612C13.4536 14.6072 13.3336 12.3072 13.3036 11.8332C13.3036 11.7412 13.3026 10.8062 12.9726 10.3542C12.7366 10.0302 12.3346 9.9042 12.0916 9.8582C12.1566 9.7642 12.2946 9.6202 12.4716 9.5352C12.9126 9.3152 13.7096 9.2832 14.5006 9.2832H14.9396C15.7976 9.2952 16.0196 9.3502 16.3316 9.4292C16.9596 9.5792 16.9716 9.9862 16.9166 11.3722C16.9006 11.7682 16.8836 12.2142 16.8836 12.7392C16.8836 12.8512 16.8786 12.9762 16.8786 13.1032C16.8596 13.8142 16.8346 14.6152 17.3366 14.9442C17.4017 14.9848 17.4769 15.0062 17.5536 15.0062C17.7276 15.0062 18.2486 15.0062 19.6616 12.5812C20.2816 11.5102 20.7616 10.2472 20.7946 10.1522C20.8226 10.0992 20.9066 9.9502 21.0086 9.8902C21.0811 9.8516 21.1624 9.83231 21.2446 9.8342H24.6396C25.0096 9.8342 25.2606 9.8902 25.3096 10.0302C25.3916 10.2572 25.2936 10.9502 23.7436 13.0462C23.4826 13.3952 23.2536 13.6972 23.0526 13.9612C21.6476 15.8052 21.6476 15.8982 23.1356 17.2982Z" fill="#1F1F1F"/>
</g>
<defs>
<linearGradient id="paint0_linear_905_43" x1="0.666829" y1="14.4088" x2="29.0087" y2="14.8593" gradientUnits="userSpaceOnUse">
<stop stop-color="#DADADA"/>
<stop offset="1" stop-color="white"/>
</linearGradient>
<clipPath id="clip0_905_43">
<rect width="30" height="30" fill="white" transform="translate(0.333496)"/>
</clipPath>
</defs>
</svg>
