<svg width="31" height="30" viewBox="0 0 31 30" fill="none" xmlns="http://www.w3.org/2000/svg">
<g clip-path="url(#clip0_905_39)">
<rect x="0.666504" width="30" height="30" rx="5" fill="url(#paint0_linear_905_39)"/>
<path d="M25.0391 15.0153C25.0391 15.0153 25.0391 18.0574 24.6532 19.5243C24.4369 20.3272 23.8038 20.9603 23.0009 21.1764C21.534 21.5625 15.6664 21.5625 15.6664 21.5625C15.6664 21.5625 9.81412 21.5625 8.33188 21.161C7.52896 20.945 6.89587 20.3117 6.67958 19.5087C6.29346 18.0574 6.29346 15 6.29346 15C6.29346 15 6.29346 11.9582 6.67958 10.4913C6.89565 9.68834 7.5443 9.03969 8.33188 8.82362C9.79878 8.4375 15.6664 8.4375 15.6664 8.4375C15.6664 8.4375 21.534 8.4375 23.0009 8.83896C23.8038 9.05502 24.4369 9.68834 24.6532 10.4913C25.0547 11.9582 25.0391 15.0153 25.0391 15.0153Z" fill="#1F1F1F"/>
<path d="M13.7979 17.8104L18.6772 15.0002L13.7979 12.1899V17.8104Z" fill="url(#paint1_linear_905_39)"/>
</g>
<defs>
<linearGradient id="paint0_linear_905_39" x1="0.999837" y1="14.4088" x2="29.3417" y2="14.8593" gradientUnits="userSpaceOnUse">
<stop stop-color="#DADADA"/>
<stop offset="1" stop-color="white"/>
</linearGradient>
<linearGradient id="paint1_linear_905_39" x1="13.8521" y1="14.8894" x2="18.462" y2="14.953" gradientUnits="userSpaceOnUse">
<stop stop-color="#DADADA"/>
<stop offset="1" stop-color="white"/>
</linearGradient>
<clipPath id="clip0_905_39">
<rect width="30" height="30" fill="white" transform="translate(0.666504)"/>
</clipPath>
</defs>
</svg>
