<svg width="46" height="56" viewBox="0 0 46 56" fill="none" xmlns="http://www.w3.org/2000/svg">
<path d="M23.0001 30.7778C22.1544 30.7679 21.3259 31.0173 20.6263 31.4925C19.9266 31.9677 19.3894 32.6458 19.0868 33.4356C18.7842 34.2253 18.7308 35.0889 18.9338 35.9099C19.1368 36.7309 19.5865 37.47 20.2223 38.0278V41.8889C20.2223 42.6256 20.5149 43.3321 21.0359 43.8531C21.5568 44.374 22.2633 44.6667 23.0001 44.6667C23.7368 44.6667 24.4433 44.374 24.9642 43.8531C25.4852 43.3321 25.7778 42.6256 25.7778 41.8889V38.0278C26.4136 37.47 26.8633 36.7309 27.0663 35.9099C27.2693 35.0889 27.2159 34.2253 26.9133 33.4356C26.6108 32.6458 26.0735 31.9677 25.3738 31.4925C24.6742 31.0173 23.8458 30.7679 23.0001 30.7778ZM36.8889 19.6667H14.6667V14.1111C14.6627 12.4616 15.1482 10.8481 16.0619 9.47473C16.9755 8.10141 18.2762 7.03013 19.7992 6.39656C21.3221 5.76299 22.9988 5.59563 24.617 5.91568C26.2351 6.23574 27.7219 7.02881 28.8889 8.19445C29.9332 9.2613 30.6802 10.5828 31.0556 12.0278C31.1468 12.3816 31.3068 12.714 31.5265 13.006C31.7461 13.298 32.0212 13.5439 32.3358 13.7296C32.6505 13.9154 32.9987 14.0373 33.3605 14.0884C33.7223 14.1396 34.0907 14.119 34.4445 14.0278C34.7983 13.9366 35.1308 13.7766 35.4228 13.5569C35.7148 13.3373 35.9606 13.0622 36.1464 12.7475C36.3321 12.4329 36.454 12.0847 36.5051 11.7229C36.5563 11.3611 36.5357 10.9927 36.4445 10.6389C35.8117 8.23556 34.5565 6.04149 32.8056 4.27778C30.8617 2.33991 28.3871 1.02149 25.6944 0.48901C23.0017 -0.0434707 20.2115 0.233863 17.6763 1.28599C15.1411 2.33812 12.9745 4.11786 11.4501 6.40048C9.92564 8.68311 9.11175 11.3663 9.11117 14.1111V19.6667C6.90103 19.6667 4.78141 20.5446 3.21861 22.1074C1.65581 23.6702 0.777832 25.7899 0.777832 28V47.4444C0.777832 49.6546 1.65581 51.7742 3.21861 53.337C4.78141 54.8998 6.90103 55.7778 9.11117 55.7778H36.8889C39.0991 55.7778 41.2187 54.8998 42.7815 53.337C44.3443 51.7742 45.2223 49.6546 45.2223 47.4444V28C45.2223 25.7899 44.3443 23.6702 42.7815 22.1074C41.2187 20.5446 39.0991 19.6667 36.8889 19.6667ZM39.6667 47.4444C39.6667 48.1812 39.3741 48.8877 38.8531 49.4086C38.3322 49.9296 37.6257 50.2222 36.8889 50.2222H9.11117C8.37445 50.2222 7.66791 49.9296 7.14698 49.4086C6.62605 48.8877 6.33339 48.1812 6.33339 47.4444V28C6.33339 27.2633 6.62605 26.5567 7.14698 26.0358C7.66791 25.5149 8.37445 25.2222 9.11117 25.2222H36.8889C37.6257 25.2222 38.3322 25.5149 38.8531 26.0358C39.3741 26.5567 39.6667 27.2633 39.6667 28V47.4444Z" fill="white"/>
</svg>
